<svg id="Layer_1" data-name="Layer 1" xmlns="http://www.w3.org/2000/svg" viewBox="0 0 705.69 64.65"><defs><style>.cls-1{fill:#111;}</style></defs><path class="cls-1" d="M1089.16,503c-32.75,1.65-53.26,28.23-52,52.45,12,3.54,26.38-3.07,32.18-15.23-6.33-2.52-12.6-3.88-19-.8-2.59,1.24-4.24,3.47-2.36,7.21,2-2.45,3.71-5.44,7.1-2.84a3.75,3.75,0,0,1,1,5.14c-1.82,3.19-4.71,4.11-8.22,3a6.77,6.77,0,0,1-4.89-5.4c-.74-3.91.85-7.09,3.82-9.54,4.07-3.37,9-3.71,14-3.29,3.17.27,6.31.89,9.44,1.36,2.43-7.29-.31-11.5-8.3-11.51,1.92,1.8,4.4,3.4,2,5.72-1.76,1.7-3.9,1.66-5.91.43-2.62-1.59-3-4-2-6.65,1.47-4,7.48-5.78,12.18-3.62,5.49,2.52,7.63,7.09,7.62,12.85,0,13.11-10.7,25.63-25.57,27.62-20.27,2.7-40.21.5-58.81-8.68-17.35-8.56-26.71-23.12-30.82-41.4-.5-2.25-1.06-4.48-1.59-6.7C945,505.73,936.66,529,946,539.17c9.82-2.56,13.84-9.42,9.7-16.59-.38.1-1,.12-1.09.32-.74,2.52-1.47,5.14-5,4.31a4.25,4.25,0,0,1-3.48-4.69c.2-3.28,2.36-4.87,5.44-5.23,7.14-.85,12.4,7.41,9.39,14.8-2.15,5.28-6.51,8.73-11.37,12.06,4,4.58,8,6.64,13.8,3.34-1.64-2.18-6.14-3-3.46-6.75,1.9-2.64,4.8-2.92,7.41-1.18,3.07,2.05,3.63,5,2,8.38-3.07,6.38-12.82,7.8-20.3,2.95-10.17-6.6-14.72-20.66-10.92-33.33,1.69-5.61,5.09-10.11,9.59-14.34-26.18-2.56-53.82,25.39-52.4,52.21,12.09,3.59,26.67-3.1,32.19-15.31-6.1-2.52-12.21-3.54-18.43-1-2.54,1.05-4.55,3.17-3.55,6.42.63.2,1.26.5,1.33.41,1.38-1.91,2.64-4.13,5.56-2.77,1.9.88,3.07,2.5,2.47,4.64a6.14,6.14,0,0,1-5.66,4.47c-6,.67-10-5.66-7.2-11.48,2.23-4.67,6.39-6.61,11.36-7.14,5.18-.55,10.22.38,15.21,1.52,2.1-7.41,0-10.87-7.73-12.15.72,2.43,4.43,5.18,0,7-2.78,1.12-5.23.22-6.46-2.41-1.44-3.11-.34-5.76,2.53-7.67,5.68-3.77,14.09-.32,16.25,7.06,2.72,9.28-.89,17-7.17,23.73a28.61,28.61,0,0,1-17.9,9.23c-20.55,2.16-40.64.32-59.34-9.26-16.3-8.35-25.43-22.11-29.58-39.43-.67-2.82-1.26-5.66-1.89-8.54-15.16,5.43-21.66,24.42-12.84,36.48,10-2.93,13.9-9.93,8.86-17.27-1,3.36-2.15,6.68-6.24,4.87a4.18,4.18,0,0,1-2.29-5.85c1.68-3.82,5-4.39,8.64-3.29,5.76,1.74,8.36,8.63,5.7,14.7a19.37,19.37,0,0,1-4.75,6.71c-1.88,1.69-3.89,3.25-6.28,5.23,3.74,4.46,7.76,6.24,13.92,3.18-2.22-2.1-6.57-3.35-3.52-7,2.06-2.49,5-2.63,7.45-.69,3.22,2.5,3.23,5.81,1.23,9.08-3.65,6-13.42,6.6-20.65,1.43-12.44-8.9-15.24-28-6-41,1.59-2.21,3.46-4.21,5.32-6.45-27.66-.3-53.65,26-52.23,52.55,12,3.6,26.31-3,31.86-14.63-9-5.62-19.48-3.78-21.42,3.76.36.12.87.44,1.07.31,2.13-1.39,4.21-3.35,6.76-.88,1.47,1.43,2.08,3.16.75,5.12a6.72,6.72,0,0,1-7.16,3.11c-5.78-1-8-8-4.15-13.11,3.4-4.51,8.31-5.51,13.68-5.58,4.11,0,8,1.08,12,1.65,2-7.17-.18-10.85-7.71-12,.92,2.47,4.2,5.28-.22,7a4.78,4.78,0,0,1-6.44-2.59c-1.57-3.19-.19-5.78,2.57-7.62,5.87-3.93,14.57,0,16.47,7.7,2,8-.64,15.06-5.68,21.28-4.72,5.83-11,10-18.37,10.8-23.44,2.71-46.18.64-66.59-12.65C687.19,538,680.5,524.35,677,508.79c-.42-1.84-.83-3.68-1.25-5.5-14.92,1.93-22.28,27.77-12.74,36.1,10.39-4,13.79-10.34,8.69-17.33-1,3.19-2.1,6.63-6.28,4.76-2.33-1-3.5-3.18-2.35-5.8,1.55-3.49,4.53-4.31,8-3.56,5.92,1.29,9,8,6.72,14.18-2.1,5.64-6.68,9.12-11.66,12.69,4,4.18,8.06,6.5,13.84,3.22-1.57-2.35-6.56-3.45-2.94-7.31a5.08,5.08,0,0,1,7-.69c3.34,2.34,3.5,5.7,1.71,9-3.48,6.45-14.22,7-21.62,1.16-12.59-9.89-14.37-29.35-3.84-42.17,1.32-1.61,2.75-3.13,4.34-4.93-29.06.95-54.67,27-52.41,52.77,11.83,3.6,25.91-2.93,31.82-14.77-10.43-5.72-21.36-3.06-21.44,5.22,1.47.37,1.53-1.07,2.18-1.71,1.88-1.83,4-1.87,5.64-.07,1.85,2,1.66,4.36-.31,6.22a6.59,6.59,0,0,1-8.25,1.15c-3.13-1.73-4.67-4.42-4-7.92,1.21-6,5.52-8.84,11.29-9.63a39.77,39.77,0,0,1,8.31-.1c2.72.21,5.41.86,8.1,1.32,1.54-7.36-.26-10.41-7.69-12.23,1.35,2.84,3.68,5.94-.87,7.37-3,1-5.13-.61-6.15-3.16-1.62-4.08.9-6.46,4.31-7.92,6.25-2.68,13.86,2,15.18,9.47,1.51,8.58-1.62,15.86-7.53,22a32.39,32.39,0,0,1-21.65,9.88c-14.87,1-29.56-.21-43.78-4.73-23.28-7.39-37.11-23.24-42.08-46.79-.42-2-.1-4.28-1.82-5.89-14.58,4.73-21.11,24-12.3,36.22,10.2-3.4,13.79-9.81,9.28-17-2,1-.94,4.06-3.31,4.76-2.78.81-4.76-.22-5.68-2.69-1.29-3.47.47-5.75,3.79-6.79a7.93,7.93,0,0,1,8.25,2.2c2.93,2.86,4.26,6.25,3.1,10.36-1.78,6.3-6.49,10.23-11.66,13.71,4.55,5.82,7.27,6.49,13.49,3.42-1.47-2-6.35-2.47-3.49-6.52,1.71-2.41,4.33-2.78,6.87-1.51,3.47,1.74,3.91,4.89,2.83,8.18-1.61,4.92-9,7.61-15.38,5.83-8.33-2.31-16.77-13.61-17.56-22.28-1-11,2.79-20.05,11-28.06-4.15-.68-7.13.82-10.17,1-1.48-3.09-.06-4,2.5-4.5,12.44-2.55,25-4.27,37.61-2.26,15.51,2.46,26.66,14.71,26.34,28.26-.14,6.34-3.34,11.29-8.59,12.81-4.24,1.23-8.14.6-10.78-3.3a4.87,4.87,0,0,1,1-6.86,4.55,4.55,0,0,1,6.4-.24c2.81,2.26-.23,3.93-.9,5.88,6.85-.22,8.7-2.73,8.25-11.35-5.21,0-10.3,1.94-15.6,1.21-4.71-.64-8.79-2.16-11.24-6.34-1.83-3.1-2.09-6.47.27-9.51a6.76,6.76,0,0,1,7.39-2.62c2.39.62,4.27,2,4.81,4.59a3.76,3.76,0,0,1-1.66,3.86c-2.15,1.68-4,.69-5.72-.78-.38-.32-1.09-.25-1.73-.37,1.61,7.61,12.29,9.56,21.37,4.11-5.29-11.34-17.61-17.29-31.34-15.13-2.5,27.47,22.64,52.12,52.9,53.26-.08-2.46-2.29-3.45-3.59-5-10.36-12.62-8.5-32.38,4.1-42.18,5.06-3.93,10.63-5.3,16.83-2.81a8.82,8.82,0,0,1,5.48,5.84c1,3.53-.2,6.33-3.69,7.75-2.71,1.11-5.33.36-6.61-2.22-1.81-3.63,2.08-4.27,4.16-6-5.7-3.6-9.91-1.57-14,2.73,3.53,3.45,7.94,5.87,10.25,10.33,2.45,4.73,2.95,9.26-.66,13.6a8.4,8.4,0,0,1-6.66,3.3c-3.36,0-5.92-1.23-6.48-4.79a4.17,4.17,0,0,1,3-5c4-1.24,5,1.55,5.42,4.94,5.81-6,2.54-12.65-7.91-17.34-9.63,10.7-3.8,29.59,11.38,36.63,2-1.1,1.63-3.25,2-5,6.54-29.18,24.18-45.9,54.16-50.93,10.78-1.81,21.66-3.08,32.6-1.49,14.6,2.13,25.44,12.5,27.14,25.73,1.17,9.1-5,16.77-12.85,15.9-4.2-.46-7.45-2.27-7.29-7.14a4.77,4.77,0,0,1,3.77-4.59,4.07,4.07,0,0,1,4.63,1.3c1.7,2.13.55,3.84-2.27,5.25,7.71.48,10.09-2.76,9-11.48-5.35,1.08-10.74,2.28-16.26,1.47-6.51-1-11.06-4.85-11.56-10.07-.48-5,3.24-9,8-8.49a6.4,6.4,0,0,1,5.52,3.8,3.75,3.75,0,0,1-1,4.6c-2.26,2.09-4.24,1.09-6.2-.58-.37-.31-1.09-.2-1.74-.3,2,7.42,10.74,9.22,21.17,4.58-3.2-10.91-17.65-18.18-31.07-15.63-2.22,25.49,19.68,51,52.49,53.47.77-2.67-1.77-3.55-3-5-10.5-12.72-8.85-32,3.72-42.2,5-4.06,10.59-5.46,16.77-3.06,3.15,1.21,5.47,3.34,5.93,6.88.44,3.37-.91,5.84-4.21,6.92a4.89,4.89,0,0,1-6.14-2.17c-2.1-3.67,1.62-4.44,4-6.08-5.87-3.77-10-1.48-14.14,2.59,4,3.58,8.59,6.47,10.92,11.39,2.48,5.24,1.64,10.57-2.43,13.81a8.24,8.24,0,0,1-7.16,2c-2.77-.62-4.68-2.19-4.89-5.1a4.25,4.25,0,0,1,3.52-4.66c3.76-.91,4.6,1.85,5.19,4.72,5.85-5.67,1.92-13.25-8.53-16.93-8.75,11.88-3.11,29.53,11.6,36.32,1.27-.27,1.62-1.32,1.79-2.34,5.8-35.31,29.82-50.64,61.63-54.44,8.71-1.05,17.48-1.79,26.25-.34,13.26,2.18,23.36,11.17,26,23.15,1,4.48.87,8.83-1.66,12.86-2.78,4.42-6.89,6.41-12,5.36-3.55-.72-6.38-2.81-6.09-7a4.88,4.88,0,0,1,5.07-4.79c4.8-.09,3.9,3.95,4.28,6.9,6-2.22,7-4.38,5.6-11.44-5.4,1-10.83,2.11-16.38,1.21-5.23-.84-9.31-3.23-10.94-8.48a7.5,7.5,0,0,1,5.53-9.84c3.29-.67,6,.42,7.56,3.4a3.82,3.82,0,0,1-1.23,5.11c-3.39,2.48-5.09-.54-7-2.65-1.94,3.31-.22,5.4,2,6.62,6.39,3.46,12.76,1.87,19.15-.4-4.51-10.47-18.07-18-28.9-16.59-3.9.49-3.63,2.69-3.3,5.38q4,32.54,34.8,44.75a62.22,62.22,0,0,0,19.28,4.47c-.5-2.6-2.57-3.65-3.88-5.22-9.94-11.86-9.3-29.74,1.59-40.52,5-5,10.9-7.45,18.06-5.12,3.46,1.13,6,3.25,6.59,7,.48,3.27-.57,5.94-4,7-2.45.78-4.84.29-6.17-2.05-2.09-3.68,1.66-4.47,3.51-6.17-5.77-3.15-7.93-2.74-13.52,2.72,3.93,3.47,8.46,6.4,10.77,11.36,2.6,5.57,1.48,11.06-3.06,14.18a8,8,0,0,1-7.91,1.12c-2.28-1-4-2.72-3.55-5.41a4.46,4.46,0,0,1,4.19-4.13c3.67-.36,3.71,2.69,4.62,4.94,5.51-5.92,2.25-12.61-8.17-17-9.65,10.47-3.5,30.08,11.41,36.31,1.89-.63,1.45-2.37,1.7-3.72,5.42-28.6,22.87-45.45,51.47-51.34,11.57-2.39,23.26-3.72,35.08-2.19,13.49,1.75,23.83,10.38,26.9,22.17,1.15,4.4,1.35,8.83-.83,13-2.38,4.53-6.17,6.89-11.47,6.53a8,8,0,0,1-6-3.17c-1.77-2.31-1.87-4.76.14-6.94,1.74-1.88,4-2.56,6.36-1.13,3.35,2,.85,4.21-.2,6.37,6.87-.58,8.86-3.53,7.81-11.51-5.21.5-10.38,2-15.71,1.26-5.71-.81-10.26-3.1-12-9a7.45,7.45,0,0,1,5.9-9.57,6.48,6.48,0,0,1,7.09,3.23,3.92,3.92,0,0,1-.9,5.18c-2,1.72-3.3,1.34-7.49-2.06-1.33,2.95,0,4.86,2.42,6.37,4.33,2.75,12.85,2.22,18.86-1.15-5.34-11.3-18.49-17.68-31.31-15.19-3,21.11,15.93,51.07,53,53.5-.21-2.63-2.6-3.72-4-5.45a30.29,30.29,0,0,1,3-40.93c5.42-5,12.59-6.46,18.35-3.77,3.37,1.58,5.54,4.17,5.53,7.88a5.65,5.65,0,0,1-4.81,5.91c-2.55.52-4.85-.24-5.82-2.75-1.3-3.35,1.81-4.15,4.2-5.66-5.6-3.8-9.7-1.63-13.87,2.48,3.09,3.57,7.41,5.74,9.77,9.82,3.17,5.5,3.08,10.86-.66,14.62a9,9,0,0,1-5.55,2.92c-3.34.32-6-.74-7.07-4.07a4.31,4.31,0,0,1,2.75-5.67c2.59-1,4,.1,6,4.5,5.22-6,1.91-12.55-8.49-16.81-9.6,11.1-2.63,31.87,12.38,36.4.54-2.25,1.11-4.48,1.59-6.73,5.71-26.77,22.81-42.2,49.33-48.08,12.38-2.74,24.92-4.24,37.59-2.37,14.42,2.13,25.61,13.39,26.48,26.25.48,7.12-2.32,12.32-7.84,14.59-4.85,2-10.43.12-12-4-1-2.55-.19-4.59,1.83-6.17a4.45,4.45,0,0,1,5.9-.1c2.78,2.18.54,3.94-.81,5.76,6.72.45,9-2.78,8.07-11.28-5.42.69-10.81,2.16-16.36,1.26-5.72-.93-10.15-3.39-11.41-9.47a7,7,0,0,1,2.53-7.4c2.13-1.63,4.54-2.33,7.21-1.13s4.93,3.19,3.51,6.39-4,3.44-6.73,1.1a5.67,5.67,0,0,0-1.77-.65c.63,7.49,10.72,9.6,21.07,4.51-4-10.07-18.9-18.22-29.18-16.18-4,.8-3,3.51-2.71,5.86,2.86,21.07,14.14,35.85,34.1,44a67.88,67.88,0,0,0,20.7,4.81c-6.73-6.55-11-13.17-11.79-21.47-1-10.19,2.25-18.82,9.85-25.67,5.11-4.6,11.15-6.16,17.83-3.38a8.45,8.45,0,0,1,5.56,7.21,5.74,5.74,0,0,1-4.77,6.55c-2.28.55-4.48-.08-5.57-2.15-1.86-3.52,1.18-4.72,4-6.22-5.72-3.87-9.83-1.51-14.13,2.44,3.64,3.68,8.22,6.2,10.55,10.84,2.41,4.79,2.67,9.32-1.11,13.52a8.73,8.73,0,0,1-6.8,3c-3.19,0-5.49-1.44-6.1-4.52a4.29,4.29,0,0,1,3.35-5.35c3.93-1,4.43,2.12,5.25,4.76,5.63-5.87,2.41-12.47-8.09-17-9.85,10.59-3,31.51,12.48,36.6,3.79-26.62,17.51-45.28,44.33-53.33,2.21,4.56-1.71,4.56-3.93,5.46-17.7,7.16-29,19.76-33.39,38.2-2.76,11.55-.72,13.6,11,11.06,9.24-2,16.26-7.27,20.38-15.69-6.34-2.51-12.62-3.88-19-.74-2.54,1.25-4.31,3.44-2.39,7.06,2-1.9,3.32-5.07,6.6-3.14a3.89,3.89,0,0,1,1.6,5.52c-1.58,3-4.37,4-7.64,3.23-5.72-1.3-7.58-8.21-3.54-13.34,3.34-4.21,8.09-5.42,13.19-5.18,4,.18,8,.84,12.11,1.3,2.28-6.84.19-10.45-7.54-11.89.36,2.42,4.41,5.18-.13,7-2.88,1.17-5.24.16-6.46-2.39-1.63-3.43-.13-6.18,3-8,6.73-3.93,16.32,2.16,16.83,10.8.52,8.83-3.37,15.92-9.73,21.76A29,29,0,0,1,1191,560c-19.45,2-38.49.27-56.43-8.08-18.49-8.62-28.4-23.73-32.57-43-.35-1.65-.67-3.31-1.08-4.94-.09-.37-.51-.65-.78-1-14.65,5.08-21,23.93-12.27,36.29,10.22-3.45,13.78-9.75,9.48-16.8-.67-.07-1.25,0-1.3.86-.16,2.48-1.33,4-4,3.88a4.35,4.35,0,0,1-4.11-3.46c-.71-2.62.59-4.54,2.9-5.72,3.24-1.67,6.3-1,8.92,1.3,3.31,2.85,4.79,6.43,3.57,10.79-1.78,6.3-6.44,10.27-11.71,13.67,4.66,5.8,7.38,6.47,13.45,3.42-1.5-2-6.32-2.63-3.34-6.64,1.76-2.36,4.34-2.7,6.89-1.32,3.41,1.84,3.9,4.9,2.69,8.2-2.32,6.35-12,8.26-19.52,4-10.21-5.81-15.49-19.77-12.43-32.17C1080.87,513,1084.68,508.05,1089.16,503Z" transform="translate(-511.6 -496.29)"/></svg>