<svg id="Layer_1" data-name="Layer 1" xmlns="http://www.w3.org/2000/svg" viewBox="0 0 631 675"><defs><style>.cls-1{fill:#231e1d;}.cls-2{fill:#fdfefd;}.cls-3{fill:#198e5f;}.cls-4{fill:#dc565d;}.cls-5{fill:#8fc4ac;}.cls-6{fill:#cccbca;}</style></defs><path class="cls-1" d="M1276,609v34c-2.12,1.72-1.63,4.46-2,6.56-2.43,16.08-8.64,30.76-16.89,44.46-12.43,20.61-29.4,37.35-48.2,52.1-18.27,14.32-38.29,26.07-58.75,37-13,6.93-26.41,12.95-39.8,19.07-17.52,8-35.07,16-52.87,23.31-24.59,10.14-49.25,20.1-72.62,32.89C976.39,863.05,968.8,869,963,877h-2a10.72,10.72,0,0,0-3.46-5.15c-8.66-8.32-19-13.79-29.68-19.18-21.34-10.81-43.55-19.58-65.64-28.53-23.77-9.63-47.1-20.22-70.53-30.58a383.57,383.57,0,0,1-40.29-20.92c-16.46-9.76-32.69-19.89-47.33-32.28-12-10.14-23.23-21.09-32.63-33.71a135.8,135.8,0,0,1-22.5-45.11c-1.53-5.49-1.34-11.35-3.94-16.54V612c2-3.79,1.51-8,2.28-12,4-21.09,12.2-40.79,21-60.23,6.44-14.28,13.53-28.27,19.77-42.63,8.91-20.49,14.67-41.65,13.31-64.43a128.6,128.6,0,0,0-2.49-19.95c-3.31-15.15-9.21-29.5-16-43.43-10.4-21.36-22.8-41.58-35.9-61.81,2-.7,2.11-2.77,3.29-4.15,11-12.93,22.13-25.81,33-38.89,13.44-16.24,26.65-32.67,40-49,1.35-1.65,2.56-2.54,5.38-1.62,18.69,6.12,37.3,12.48,56.51,17A292.87,292.87,0,0,0,825.05,237c7.49.68,15-1.16,22.52-1.78,14.65-1.2,28.62-5.26,42.74-8.76,15.63-3.88,30.66-9.6,45.71-15.24,7.45-2.79,15.15-5,22-9.24h4c7.26,4.37,15.33,6.84,23.21,9.76,28.2,10.43,56.62,19.79,86.71,23.66,14.7,1.89,29.15,2.05,43.49-.6A355,355,0,0,0,1169.06,220c8.57-3,17-6.36,25.3-9.46l79.72,98a574.08,574.08,0,0,0-31.79,53.49c-4.74,9-8.62,18.47-12.45,27.93-8.17,20.14-11.78,40.73-9.11,62.6,2.19,17.95,8.46,34.37,15.8,50.54,6.42,14.13,13.34,28,20,42.07a225.81,225.81,0,0,1,18.3,56.47C1275.21,604.15,1273.82,606.88,1276,609ZM962.19,856.79c2.8-2,5.39-4,8.08-5.83,11.39-7.75,23.67-13.79,36.3-19.22,17.43-7.48,34.6-15.61,52.22-22.61,22.13-8.79,43.6-19,65.28-28.83,16.63-7.5,32.37-16.78,48-26.26,22-13.38,42.36-28.75,59-48.62,14.82-17.65,25.26-37.2,29.1-60.34a135.38,135.38,0,0,0-.49-45.45c-3.67-21.43-12.47-41.2-21.8-60.65-6-12.51-12.37-24.84-17.82-37.6-9.76-22.83-16.36-46.19-14.34-71.6a144.77,144.77,0,0,1,7.73-37.48c9.65-27,23.43-52,38.84-76.06,2.68-4.19,4.48-6.93,0-12-11.26-12.63-21.35-26.3-32-39.45-9.26-11.42-18.83-22.59-27.88-34.17-1.8-2.3-2.58-2.69-5.35-1.8-14,4.57-27.82,10-42.15,13.76-14.1,3.69-28.26,7.33-42.81,8.26-16.28,1-32.43-.57-48.52-3.75-27.6-5.46-54-14.58-80.28-24.33-6.53-2.42-12.22-6.73-20.51-3a411.28,411.28,0,0,1-57.7,20.33c-18.29,5.1-36.79,9.16-55.69,10.77-14.64,1.25-29.32-.29-43.7-3.11a416.11,416.11,0,0,1-60.89-16.85c-3.31-1.19-5.16-.49-7.14,1.92q-11.8,14.4-23.71,28.7-18.42,22-37,43.95c-2,2.33-2,4.19-.27,6.81a443.44,443.44,0,0,1,22.51,38.31c5.32,10.14,10.31,20.43,14.67,31,7,17,11.42,34.71,12.07,53.18.7,19.81-3.59,38.76-10.45,57.19-8.43,22.65-20.17,43.83-29.61,66-11.22,26.44-18.75,53.37-16.09,82.6,1.58,17.39,7.34,33.13,16.24,47.67,10.44,17.07,24.53,31,40.14,43.53,18.64,15,39.2,26.77,60.07,38.15,15.31,8.35,31.39,15,47.28,22.11,14.26,6.34,28.45,12.9,43,18.62C889,819.57,911.17,828.9,933,839A157.69,157.69,0,0,1,962.19,856.79Z" transform="translate(-645 -202)"/><path class="cls-2" d="M962.19,856.79A157.69,157.69,0,0,0,933,839c-21.87-10.14-44.08-19.47-66.51-28.31-14.51-5.72-28.7-12.28-43-18.62-15.89-7.07-32-13.76-47.28-22.11-20.87-11.38-41.43-23.17-60.07-38.15-15.61-12.55-29.7-26.46-40.14-43.53-8.9-14.54-14.66-30.28-16.24-47.67-2.66-29.23,4.87-56.16,16.09-82.6,9.44-22.22,21.18-43.4,29.61-66,6.86-18.43,11.15-37.38,10.45-57.19-.65-18.47-5.06-36.14-12.07-53.18-4.36-10.58-9.35-20.87-14.67-31a443.44,443.44,0,0,0-22.51-38.31c-1.73-2.62-1.7-4.48.27-6.81q18.54-21.92,37-43.95,11.94-14.28,23.71-28.7c2-2.41,3.83-3.11,7.14-1.92a416.11,416.11,0,0,0,60.89,16.85c14.38,2.82,29.06,4.36,43.7,3.11,18.9-1.61,37.4-5.67,55.69-10.77a411.28,411.28,0,0,0,57.7-20.33c8.29-3.72,14,.59,20.51,3,26.27,9.75,52.68,18.87,80.28,24.33,16.09,3.18,32.24,4.78,48.52,3.75,14.55-.93,28.71-4.57,42.81-8.26,14.33-3.75,28.1-9.19,42.15-13.76,2.77-.89,3.55-.5,5.35,1.8,9,11.58,18.62,22.75,27.88,34.17,10.67,13.15,20.76,26.82,32,39.45,4.49,5,2.69,7.77,0,12-15.41,24.09-29.19,49.09-38.84,76.06a144.77,144.77,0,0,0-7.73,37.48c-2,25.41,4.58,48.77,14.34,71.6,5.45,12.76,11.83,25.09,17.82,37.6,9.33,19.45,18.13,39.22,21.8,60.65a135.38,135.38,0,0,1,.49,45.45c-3.84,23.14-14.28,42.69-29.1,60.34-16.68,19.87-37,35.24-59,48.62-15.62,9.48-31.36,18.76-48,26.26-21.68,9.79-43.15,20-65.28,28.83-17.62,7-34.79,15.13-52.22,22.61-12.63,5.43-24.91,11.47-36.3,19.22C967.58,852.79,965,854.76,962.19,856.79Zm160.7-302.87c3.09,4.82,8,2.93,12.14,2.9a3.28,3.28,0,0,0,2.83-4.34c-8.73-2-17.56-8.29-12.5-25,12,6.68,18,9.73,21.52,2-10.06-2.07-14.63-9.19-14.35-16.35,6.26,2.26,10.51-2.16,15.28-4.86a14.93,14.93,0,0,1,2.24,7.83c.1,2.46,1.29,3.54,3.82,1.68,4.19-3.08,2-7.11,1.6-10.68-.3-2.67-.53-4.74,1-7.34,2.44-4.09,6.07-8.48,5.26-13.24a20.7,20.7,0,0,1,2-13.58c3.13-6.6-.1-13.59-3.19-19.68-2.74-5.4-7.34-9.77-9.4-15.68-.87-2.48.9-6-2.68-7.31-2.53,1.33-3.62,3.53-4.59,6.22-3,8.44-6.74,16.62-8.94,25.34-3.71-1.75-5.41,4-9.36,2.5a22.56,22.56,0,0,1,1.31-6.11c.64-2-1-2.89-2.58-3.6a2.21,2.21,0,0,0-3.12,1.27c-.71,3.19-3.58,6.06-1.15,9.76l-4.89.71c-.15-2.89.35-7.34-3.6-6.79s-2.23,5.13-2.49,8.06a2.84,2.84,0,0,0,.72,1.78c1.8,2.2.39,3.85-.8,5.62s-2.81,1.76-4.47.81-3.24,0-3.36,1.32c-.21,2.38-1.37,5.42.7,7.14,3.54,2.94,2.33,6.23,1.7,9.79a41.49,41.49,0,0,0-3-3.93c-1.69-1.77-3.23-1-3.54,1-.55,3.66-.39,8.24,2.39,10.16,3.94,2.74,2.18,5.48,2.39,8.45-2.41-.64-2.7-4.8-5.77-2.73-1.91,1.29-2,3.43-.94,5.5.66,1.33,1.29,2.67,1.95,4,1.18,2.34,4.14,4,2.62,7.33-1.8-.85-2.94-4.22-5.56-2.26-2.27,1.69-1.19,4.16-.3,6.35.18.45.07,1,.32,1.44,1.8,2.79.93,4.54-2.05,5.53-2.6.85-2.68,2.59-2.22,5a14.19,14.19,0,0,0,2.79,6.16c1.58,2,1.38,3.48-.51,5.39,0-3.26-.78-6.26-4.44-5.2-3,.87-3.54,3.54-1.92,6.49.69,1.26.66,2.89,1.27,4.21,1.37,3,3.87,5.76,1.21,9.34a5.45,5.45,0,0,0-3-5.25c-2-1.09-4.1-1.08-4.18,1.77-.1,3.73-1.16,7.71,1.29,11.1,2.08,2.89,1.89,5.23-1.09,7.26-1.58-1.9-1.1-6.52-5.24-5-3.83,1.41-2,5-1.61,7.75,0,.32.44.65.38.91-1,4.23,3.44,9.33-2.45,13.2-.49-2.72-.89-5.22-1.42-7.69-.39-1.81-1-3.39-3.41-3.47a3,3,0,0,0-3.42,3.33c.14,5.11.59,10.25,4.35,14.49-2.47,3.18-4.26,7.12-8.19,10.08-.51-3.35-.13-6.28-1.17-9.1-.78-2.1-1.38-4.39-3.83-4.13-2.73.28-3.19,2.76-3.31,5.24-.24,4.91.62,9.46,3.33,12.35l-8.23,9.23c.15-4.39-1.21-8.27-2.11-12.24-.48-2.14-2.22-2.4-3.91-2s-3.79,1.19-3.31,3.37c1.17,5.33.58,11.11,4.37,16-3.54.71-4.17,5-7.9,5.17-.43-5.52,0-11.13-5.6-15-5.63,6.62-1.47,12.78.26,18.76a6.41,6.41,0,0,1-4.29,2.44c-2.77-4.58-.38-11.2-6-14.5-4.35,3.66-5.11,9.51-1.77,15.9.83,1.59,1.71,2.58-.82,3a52.36,52.36,0,0,1-11-3.65c-3.64-1.56-7.4-2.65-11.07,0-10.28,7.4-22,11.93-33.65,16.41a8.75,8.75,0,0,1-6.43.07c-11.19-4.17-22.16-8.87-32-15.75-3.71-2.6-7.44-2.64-11.22-2-3.37.59-6.54,2.31-9.79,3.52l-3.5-1.35c4.9-6,4.83-13.76,0-18.08-2.79,1.42-3.69,4.1-4.36,6.81s-1,5.32-1.48,8.18l-5.43-2.88a19.43,19.43,0,0,0,3.86-13.52c-.16-2.37-1.4-4.47-3.58-4.55s-3.19,2.08-3.43,4.2c-.39,3.54-1.73,6.95-1.11,10.84-7.25-5-7.23-5-5.26-12.7a17.26,17.26,0,0,0,.92-4.79c-.11-3,.1-7.06-3.48-7.57-3.24-.46-4.06,2.88-4.23,6a59.14,59.14,0,0,1-1.32,7.46c-2.85-2.76-5.53-5.33-8.41-8.1,3.67-3.2,3.57-7.89,3.83-12.43a3.85,3.85,0,0,0-3.33-4.28c-2.53-.48-3.07,1.23-4,3.31-1.14,2.64.08,5.5-1.2,8.08-3.05-1.46-3.88-4.64-6.07-6.64-.9-.82-1.4-2.12,0-4.31,2-3.21,2-7.78,2.57-11.81.36-2.51-1.06-4.2-3.57-4.51-2.78-.35-3.14,1.85-3.37,3.84-.28,2.42-.67,4.75-2.32,6.67-2-2.07-2.75-4-1.92-7.05s.43-6.52,1.17-9.78c.47-2.08,0-4-2.46-4.62-2.78-.76-3.23,1.49-4.22,3.14-.52.85.22,2.11-.87,2.64-2.58-2.61-2.92-5.35-.64-8.35,1.63-2.13,1.35-4.71,1.27-7.17s.79-5.24-3.2-5.5c-4.15-.28-3.88,2.62-4.05,5.41-1.33-2.3-2.31-4.06-.21-6.69,1.75-2.18,2.38-5.33,3.2-8.14a4.12,4.12,0,0,0-2.52-5.25c-2.08-.65-4.27.2-4.38,3.16,0,.63-.08,1.35-1.14,1.28-1.55-2.08.19-3.37,1-5.12,2.74-5.84,4.54-9.77-3.42-12,2.46-8.9,2.46-8.9-3.13-13.08.22-4.69,7.58-8.79,1.27-14.32l-4.1,3.87c.79-2.27-2.2-5.14.37-6.68s3-4.2,3.87-6.52c.78-2.1,1.29-4.73-.3-6.57-1.86-2.14-3.78.66-5.74.76-2-2-1.94-3.35.53-5.15,2.92-2.12,2.63-5.79,1.43-8.56s-4-1.72-6.25-.49c-2.23-2.63-3.19-4.95-1.69-8.68,1-2.39,2.63-7.34-2.33-8.18-3.87-.65-3.78,3.44-4.47,6.13a2.43,2.43,0,0,1-.27.48c-.9-1-2.64,0-3.52-1.77,1-2,.33-4.21-.28-6.31-.54-1.82-1.37-4-4.06-3.45-2.27.43-2.49,2.28-2.62,4.12-.1,1.6.54,3.41-1.3,4.54-2.47-.69-4.6-3.08-7.57-1.71-2-11.52-6.34-22.07-12.11-32.46-1.87,1.84-3.23,2.71-3.11,4.76a15.47,15.47,0,0,1-4.22,11,38.59,38.59,0,0,0-9.35,19.83c-.69,4.19-1,8.22,2.6,11.34,1.84,1.57,2.48,3,1.14,5.48-2.1,3.87-1.23,7.75,1,11.52,3,5.14,6.37,10.2,4,16.75-.58,1.62-.19,3.65,0,5.47.19,2.25,2.15,2.84,3.81,2.82,1.45,0,2.44-1.17,2.23-3.09-.25-2.38-.33-4.87,2.41-6.74,4.22,3.35,9,5.57,14.45,5.57-.6,8.63-5,13.37-13.83,15.29,4,6.65,8.63,6.2,21.73-2.21.11,1.52-.09,3,.36,4.3,3.07,8.8-1.69,16.23-9.19,19.92-1.44.71-4.56-.14-3.66,3.23.75,2.77,3.48,3.12,5.4,3.09,11.21-.16,19.2-7.44,21.38-18.55.43-2.22.92-4.73,2.84-6.45,2.89,2.21,3.64,5.5,4.7,9.25-2-.71-3.57-2-5.32-.75-.5,5.88,1.76,9.16,8.21,10.61,2.54.57,3.06,1.66,3.29,3.95-2.45-.27-3.72-1.78-5.29-2.9-1.4-1-2.88-3-5.08-1.06-2,1.78-1.66,3.53-.6,5.75,2.75,5.75,4.43,6.64,13.64,6.14-.17,2.82,3.11,4.77,2,8.19-2.05-.73-3.9-1.37-5.73-2.06-2.44-.92-4.93-1.49-6,1.71-.86,2.62,1.09,4.25,3.1,5.24,3.88,1.91,7.84,4,12.87,1.78,0,3.57,2.71,5.71,3,9-1.9-.7-3.61-1-4.9-1.88-2.09-1.43-4.19-1-5.28.57-1.28,1.79-.81,4,1.08,5.76,2.6,2.39,6,2.27,9,2.71,5,.74,5.05.35,6.45,6-3.66-.43-7-3.24-10.85-1.45-.57,7.34,7,11.26,15.11,8.09a40.14,40.14,0,0,1,3,3.38,37.91,37.91,0,0,1,2.16,4c-2.75-.11-5.27.56-7.64-.55-1.59-.75-2.6.39-3.44,1.18s-.16,2,.44,3.09c1.49,2.69,9.24,5.53,13.5,4.1,3.45-1.16,5.12,0,6.73,2.73-.58.25-.9.52-1.17.48-3.16-.45-5.6.9-5.67,4s2.36,3.66,5.35,4.39c4.63,1.12,9.85.13,14.07,3.26-.37.42-.54.79-.82.9-2.25.91-5.56,1.5-4.61,4.64.88,2.93,3.38,3.86,7,3.22,3.5-.61,7.67-1.43,11.12,1.19-1,2.16-4,1.56-4.38,3.92-.87,5.14,2.75,4.67,5.94,4.72-3.29,4.41-8.2,6.08-13.07,7.89s-10.44.08-15.88,2c0-4.62-.42-9.14.1-13.55.79-6.59-3.1-9.39-9.74-9.48A218.29,218.29,0,0,0,803.12,644c-14.5,2.57-28.59,6.46-41.72,13.28a40.65,40.65,0,0,0-6.78,4.67c-3.5,2.86-1.62,6.76-1.62,10.25,0,24.81,0,49.62,0,74.26,6.44,3.87,12.9,4.93,20,2.07,0-5.26-.27-10.59.07-15.88s2.47-9.94,7.66-12.6A48.66,48.66,0,0,1,803,714.76c0,2.7-.13,5.36,0,8,.36,6.34,1.76,12.15,7.4,16.22a58.22,58.22,0,0,0,18.06,9,392.44,392.44,0,0,0,65,13.3c16.5,1.83,33,2.91,49.56,3.62,15.22.65,30.49.08,45.75-.66,10.86-.53,21.73-1.19,32.47-2.41,16.55-1.88,33.1-4.29,49.23-8.79,11.28-3.15,22.92-5.38,33.18-11.35,4.92-2.86,9.91-6.45,10.15-12.81.19-5,1.46-9.71,1.34-14.84,6.26.61,12.35,1.17,17.73,3.64,7.06,3.23,11.44,6.92,11.1,16.28-.23,6.48,0,13,0,19.48,1-3.18,2.42-3.88,5.62-2.7a14.9,14.9,0,0,0,7.4.2c6.59-1.15,8-3.12,8-10,0-22.83-.35-45.66.19-68.47.18-7.68-3.35-11.7-9.2-15-12.16-6.88-25.29-10.66-38.9-13.69-15.59-3.48-31.24-3.93-47-3.76-5.91.07-8.09,2.44-8.11,8.43,0,5.12,0,10.23,0,15.56-11.86-1-23.63-.31-33-8.81a7.37,7.37,0,0,1,2.89.31c2.33.7,5.25,1.71,6.69-1,1.68-3.19-1-4.69-3.44-6-.24-.13-.33-.56-.66-1.15,3.42-2.28,7.47-1.86,10.78-1.07,3.94,1,6.08-1,7-3.47,1.21-3.15-2.16-4-4.44-5-.47-.21-.58-.34-.23-.8,3.56-2.87,8.2-1.29,12.24-2.73,3.06-1.09,7.07-.54,6.54-5-.61-5.08-4.69-3-8.4-2.23,2.26-2.63,3.59-6.18,6.89-4.8,4.16,1.73,7.79-.55,11.69-.46,2.75.06,4.47-2.83,3.93-5.6S1078,612,1075,613.54a4.19,4.19,0,0,1-4,0c1.47-3,1.85-6.6,7.15-4.89,2.25.73,5.47-.65,8-1.74,3-1.34,5-3.72,3.65-7.42-4-1.64-7.62.82-11.86,1.23l3.91-6.64c4.61,2.38,8.38-.19,12.16-1.6a3.53,3.53,0,0,0,1.85-5c-1-1.94-2.93-3.11-5-2.2a9.71,9.71,0,0,1-5.65.56c2.11-2.19,1.29-7.31,5.44-6.49,5.07,1,8.26-2.11,12.17-3.66a3.31,3.31,0,0,0,1.7-3.73c-.3-2-1.89-1.7-3.35-2-3.82-.85-6.33,2.65-10.16,2.67.7-1.46,1.63-2.7,1.9-4.07.62-3.19,1.48-4.85,5.59-4.69s7.67-2.45,9.61-6.47c.87-1.8,1.74-3.45-.36-5.28s-3.38-.27-4.72.58c-1.8,1.15-3.38,2.61-6.64,3.59,3.35-6.57,14.63-5.48,12.59-14.24-2.42-2.19-3.94.64-5.84-.46a24.8,24.8,0,0,1,4.77-9.49c2.49,4,2.15,9,4.25,13.13s4.46,8.41,10.06,8.68l.38.13ZM835,312c0,2.38,0,4.19,0,6,.68,57.15-1.59,114.33,1.86,171.46.47,7.88.66,15.94,2.42,23.44,5.27,22.39,12.28,44.23,23.69,64.49A192.88,192.88,0,0,0,909,632.53,157.73,157.73,0,0,0,952.8,658c2.91,1.12,5.85,1.52,8.94.09,4.37-2,9-3.43,13.31-5.65,20.25-10.49,38.35-23.68,53.38-41.13A189.36,189.36,0,0,0,1055.31,571a216.07,216.07,0,0,0,16.87-47.12c2.25-9.86,4.49-19.78,4.65-29.75,1-58.71-1.09-117.46,1.26-176.16.2-4.88-1.32-6.13-6.12-6.12q-116,.21-231.9.1Zm60.92-40.65c8.72,5.87,3.58,13.46,5.49,21.24-5.25-6.66-10.12-11.75-13.65-17.64-3-4.95-6.52-4.05-10.84-3.57.65,2.43,3.22,1.88,4.08,3.61,0,5.72,0,11.54,0,17.35,0,3.54,1.15,7.59-3.82,9.31h10.7c-7.22-6.7-2.2-14.91-3.71-22.13,6.85,7.29,11.78,16,19.84,23.63V274.59c1.46-1.09,3.29-1.13,4.24-3.25Zm128.49.36c6.52,1.64,4.41,6.34,4.56,10.07s0,7.64,0,11.46c0,3.34.83,7-4.27,8.17,5.57.6,10.84,1.24,15.89.44,6.05-1,11.18-4,12.84-10.73,1.48-6,.32-11.37-4.4-15.5C1042,269.39,1033.41,271.31,1024.4,271.7Zm-18.27,20.67a23.83,23.83,0,0,0,0-12.68c-1.24,7.57-6.55,4.82-10.84,5.33V274c5.38.41,11.33-2.1,14.13,5.68a19.51,19.51,0,0,0,.41-8.12H986.06c7.53,3.75,3.61,10.29,3.63,15.15s3.77,11.28-3.77,14.86c6.33.48,12.49.48,18.66.48,6,0,7.92-2.66,6.24-10.55-3.11,9-9.33,8-15.77,7.2.13-4-.46-7.8.39-11.64C999.75,287.41,1005.19,284.67,1006.13,292.37ZM833.46,271.28C838,275,838,275,838,281c0,3.82.08,7.64,0,11.46-.14,5.27,3.41,10.13,11.57,10.28,5.68.1,10-4.6,10.56-10.08.78-7.19-3.25-15.23,4.25-21.26H852.92c.64,2.43,3.18,1.91,4.06,3.61,0,5.71,0,11.52,0,17.33,0,4.42-2.8,7.49-6.79,7.63-3.55.12-7-3.2-7.11-7.27-.16-6.13,0-12.27,0-18.17,1.6-.93,3.33-1.07,4.18-3.21Zm139.18.05h-25c1,3.07-.69,6.09,1.93,9.93.31-6.48,3.8-7.31,8.4-7.12,0,6,0,11.68,0,17.33,0,3.78,1.37,8.17-4.28,10,4.73.61,9,1,13.79,0-4.26-2.57-4.41-2.57-4.44-4.91-.07-7.47,0-14.94,0-22.34,5.08-.82,7.66,1.64,9.62,5.68Zm-53.17-.19c8.29,3.87,5.53,10.12,5.3,15.23s3.58,11.52-4.8,15.24h13.91c-4.84-1.39-4.22-5.17-3.81-8.43.92-7.35-3.19-15.55,4.45-22Z" transform="translate(-645 -202)"/><path class="cls-1" d="M835,312h5.08q115.95,0,231.9-.1c4.8,0,6.32,1.24,6.12,6.12-2.35,58.7-.31,117.45-1.26,176.16-.16,10-2.4,19.89-4.65,29.75A216.07,216.07,0,0,1,1055.31,571a189.36,189.36,0,0,1-26.88,40.23c-15,17.45-33.13,30.64-53.38,41.13-4.27,2.22-8.94,3.62-13.31,5.65-3.09,1.43-6,1-8.94-.09A157.73,157.73,0,0,1,909,632.53,192.88,192.88,0,0,1,863,577.37c-11.41-20.26-18.42-42.1-23.69-64.49-1.76-7.5-1.95-15.56-2.42-23.44C833.4,432.31,835.67,375.13,835,318,835,316.18,835,314.37,835,312Zm24.09,99c3,8.09,8,15,12.92,22A176.12,176.12,0,0,0,914.65,476c13.28,9.4,27,18.16,42.43,23.73a3.54,3.54,0,0,0,1.46,0A227.26,227.26,0,0,0,1017.37,460a207.68,207.68,0,0,0,40.25-52.46c4-7.37,9.38-14.76,10-22.95,1.62-20.34,1.65-40.8,2.29-61.21,0-.95.26-2-.81-3a8.38,8.38,0,0,0-1.66-.29q-55.23,0-110.46.13-55.43-.06-110.85-.11c-.28,0-.55.27-1.15.58v2.74c0,19.62-.06,39.24,3,58.7C849.66,392.52,854.19,401.8,859.08,411ZM957,508.23c-52-21.49-90.44-57.06-113-110.49a17.66,17.66,0,0,0-.92,3c.2,34.05-1.23,68.14,2.72,102.11,2,17.51,7.87,33.84,14,50.13a159.81,159.81,0,0,0,26.09-16.09c3.23-2.45,6.2-3.22,9.34-1.53,5.22,2.83,8.15.27,11.36-3.38,2.62-3,6-5.06,10.18-2.6a3.79,3.79,0,0,0,3.32.57c5.85-2.76,9.88.49,13.85,4.28,7.19-6.78,15.83-11.17,23.16-17.34,1.7-.92,3.07-.09,4.23,1,6.33,5.94,13.94,10,21,14.86,2.51,1.71,4.85,1.4,7-.6a32.12,32.12,0,0,1,8.32-5.41c1.92,2.06,3.84,3.92,5.51,6,4.52,5.54,9.31,9.64,16.64,4.32a8.15,8.15,0,0,1,2.4-.68c7.69,10.94,20.48,13.62,31.48,19.49,3.6-7.5,5.71-15.45,8.24-23.23,5.82-17.81,7.54-36.34,7.94-54.9.52-23.31.13-46.65.12-70v-7.42c-4.72,9.21-8.81,17.19-13.9,24.62-5.23,7.63-10.35,15.31-16.57,22.25-9.93,11.08-20.24,21.68-31.89,31a222.13,222.13,0,0,1-31.41,21.05C970,502.6,964,506.45,957,508.23Zm-23,36.38c4.08-1.24,7.87-2.72,11.8-3.49,2.6-.51,3.2-1.67,3.23-4,.06-3.71,4.25-7.76,8.06-8.08,1.57-.13,9.07,4.59,8.85,5.84-1,5.56,2.79,6.47,6.77,7.47,2.46.62,4.85,1.54,7.31,2.33,0,4.58,0,8.9,0,13.23,0,1.05.57,2.7-1,2.94-2.65.41-1.94,2.29-2,3.78,0,9.33.05,18.66-.09,28,0,2.12.57,3.35,2.48,4.21,8.19,3.66,16.21,7.76,24.57,11,12.76,4.95,13.06,4.88,21.86-5.33,10.89-12.63,19.21-26.92,26-42.52-11-5.68-23.37-8.74-31.19-18.8-2,1.05-3.64,1.88-5.25,2.68-3.52,1.77-6.36,1.72-9.13-1.84s-6.4-6.55-9.7-9.84c-3,2.19-5.81,4.41-8.79,6.39-.88.59-1.81,1.47-3.4.49-8.89-5.48-18-10.68-25.72-17.63-7.45,5.24-15.05,10.26-22.25,15.82-2.67,2.07-4.06,1.87-6.16-.36-5.36-5.71-12.56-1-18.65-3-.68-.22-2,1.07-2.81,1.81a27.38,27.38,0,0,0-3.53,3.53c-1.82,2.31-3.67,3.45-6.69,1.87-5.58-2.92-10.2-.82-15,2.65-7,5.07-14.4,9.51-21.53,14.14,1.31,3.08,2.25,5.67,3.47,8.12a208.59,208.59,0,0,0,23.2,36.18c7.86,10,10.13,10.63,21.55,6.81,9.61-3.23,17.85-9.27,27.16-12.8-.19-1.65-.7-3-.43-4.17,1.88-8,.62-16.19.86-24.27.07-2.64,1.56-6.31-3.24-7-1-.15-.66-1.72-.66-2.67C934,553.59,934,549.11,934,544.61Zm43,56.8c0,9.35,0,17.48,0,25.61,0,2.4-.45,4-3.06,4.9C963.73,635.41,953.6,637,943,633c-3.69-1.39-5.3-2.88-5.12-7,.35-8,.1-16.06.1-25.09-12.35,5.77-23,12.58-36.67,15.33,5.66,4.73,10.17,8.86,15,12.49,11.86,8.83,24,17.23,38.78,20.61,1.65.38,3.18.91,4.83.18,12.45-5.45,25.37-10,36.18-18.62,6-4.77,12.41-9,17.57-15.71C1000.44,613.25,990.15,605.1,977,601.41Zm-17.71-7v36.7c5-.4,9.26-2.17,13.34-3.43V595C968,595.56,963.89,592.94,959.28,594.36Zm-4.56,36.56V594c-4.43.19-8.69-.76-12.7,1.74q0,14.65,0,29.34c0,1.55-.06,3.56,1.64,3.71C947.38,629.11,950.73,631.21,954.72,630.92ZM959,561.06c0,6.1.25,11.76-.09,17.38-.21,3.48,1.72,7.33-1.74,10.49-.93.85.25,2.73,1.72,3,5.55.85,11.14,1.49,17.61,2.33-6.48-10-1.92-20.27-3.91-29.86Zm-4.17.09c-3.55.71-6.58,1.17-9.53,2-1.4.38-3.31.5-3.3,2.82,0,7.6,0,15.2,0,22.74a23.81,23.81,0,0,0,12.82-1.24Zm21-13.79c-5.66-.87-10.75-3.75-16.83-4.33a36.86,36.86,0,0,1-.06,5.7c-.42,2.54,1,3.66,3,4.17,4.49,1.14,9,2.07,13.69,3.11C976.29,553.11,976,550.34,975.85,547.36ZM938.63,556c3.28-.73,6.58-1.37,9.83-2.22,7.26-1.9,7.83-3,5.69-10.92l-5,1.57c-1.68.51-3.38,1-5,1.52C937.12,548.21,937.12,548.22,938.63,556Z" transform="translate(-645 -202)"/><path class="cls-1" d="M1029,655.2c9.32,8.49,21.09,7.75,33,8.8,0-5.33,0-10.44,0-15.56,0-6,2.2-8.36,8.11-8.43,15.77-.17,31.42.28,47,3.76,13.61,3,26.74,6.81,38.9,13.69,5.85,3.31,9.38,7.33,9.2,15-.54,22.81-.2,45.64-.19,68.47,0,6.84-1.41,8.81-8,10a14.9,14.9,0,0,1-7.4-.2c-3.2-1.18-4.59-.48-5.62,2.7,0-6.5-.19-13,0-19.48.34-9.36-4-13-11.1-16.28-5.38-2.47-11.47-3-17.73-3.64.12,5.13-1.15,9.89-1.34,14.84-.24,6.36-5.23,9.95-10.15,12.81-10.26,6-21.9,8.2-33.18,11.35-16.13,4.5-32.68,6.91-49.23,8.79-10.74,1.22-21.61,1.88-32.47,2.41-15.26.74-30.53,1.31-45.75.66-16.53-.71-33.06-1.79-49.56-3.62a392.44,392.44,0,0,1-65-13.3,58.22,58.22,0,0,1-18.06-9c-5.64-4.07-7-9.88-7.4-16.22-.16-2.65,0-5.31,0-8A48.66,48.66,0,0,0,780.74,720c-5.19,2.66-7.31,7.22-7.66,12.6S773,743.24,773,748.5c-7.13,2.86-13.59,1.8-20-2.07,0-24.64,0-49.45,0-74.26,0-3.49-1.88-7.39,1.62-10.25a40.65,40.65,0,0,1,6.78-4.67c13.13-6.82,27.22-10.71,41.72-13.28a218.29,218.29,0,0,1,41.25-3.05c6.64.09,10.53,2.89,9.74,9.48-.52,4.41-.1,8.93-.1,13.55,5.44-1.87,10.86-.08,15.88-2s9.78-3.48,13.06-7.89c7.07-3.24,13.59-2.74,19.92,2.15,2.54,2,5.78,3.1,8.81,4.37,1.91.8,4.14,1,5.05-1.48s-.27-3.71-2.71-4.29a11.91,11.91,0,0,1-2.95-1.7c4.95-1.82,10.19-.9,15.76-1.35-9.24-3.76-10.71-3.72-17.56.26-2.77-1.47-6.68-.71-8.35-4.31,3.25-1.21,6.42-2.93,9.79-3.52,3.78-.65,7.51-.61,11.22,2,9.79,6.88,20.76,11.58,32,15.75a8.75,8.75,0,0,0,6.43-.07c11.69-4.48,23.37-9,33.65-16.41,3.67-2.64,7.43-1.55,11.07,0a52.36,52.36,0,0,0,11,3.65,17.12,17.12,0,0,1-8.88,4.72c-8.08-4.77-16.45-5.2-20.52-1.07,6.08.91,12.57-1.41,18.31,2.3a12.11,12.11,0,0,1-2.91,1.68c-2.17.54-4.81.81-3.49,3.89,1.08,2.52,3.33,3.47,6.13,2,3.33-1.76,7.07-2.94,10-5.18C1019.19,654,1023.69,652.62,1029,655.2ZM806.87,669c.8,18.65-.59,36.89.9,55.16a16.14,16.14,0,0,0,7,12.72A41.3,41.3,0,0,0,827.81,743a390.57,390.57,0,0,0,53.77,12.27c14.09,2.07,28.22,3.51,42.35,4.49,12.53.86,25.17.58,37.75,1.21,5.11.26,10.11-1.16,15.27-1.08a205,205,0,0,0,21.29-.65c12.88-1.16,25.71-2.46,38.53-4.12,20.27-2.61,39.86-7.74,59.16-14.17,10.49-3.5,14.06-8.74,14.06-19.62a42.73,42.73,0,0,1,0-6c2.22-15.34.23-30.72,1.1-46.78-5.47,2.86-10.69,3.89-15.71,5.51-20.17,6.53-40.55,11.86-61.75,14.12-18.83,2-37.67,3.59-56.58,3.76-23,.2-46,.5-69-1.77-12.2-1.2-24.4-2-36.52-4C849.67,682.49,828.51,676.38,806.87,669Zm47.1,8.32c.88.81,1.18,1.32,1.58,1.42,15.71,3.66,31.72,5.59,47.72,7.07,14.28,1.33,28.68,1.12,43,2,17.58,1.14,35.15-1.27,52.74-.91.34,0,.67,0,1,0,16.27-1.58,32.64-2.35,48.76-5.12,4.42-.76,9.29-1,13.11-4.23A22,22,0,0,0,1055,677c-9.42.57-18.51-.33-27.2-4.56-5.53-2.69-11.38-4.94-17.73-2.44-9.27,3.65-17.72,1.93-26-3.29-3.15-2-6.84-1.58-10.77-1.11-9.4,1.12-18.77,3-28.51.63-7.28-1.78-15.07-2.39-22,2.71-5.71,4.18-12.19,3.86-18.62,1.62a23.53,23.53,0,0,0-19.3,1.36,84.38,84.38,0,0,1-10.83,4.1C867.64,678.27,861,676.21,854,677.35Zm290-8c5.9-1,11.46.87,16.57-1.69-7.52-16.59-81-28.66-93-21.48a91.73,91.73,0,0,0,18.75,6.91c8,2,16.34,2.51,24,5.84,2.72,1.19,5.08,2.61,4.58,6.1-2.12,14.83-.24,29.7-1,44.87,5.85-.35,10.93.94,15.93,2.22a27.61,27.61,0,0,1,14.16,8.27ZM772.87,668v53c8.72-9.06,19.72-9.26,30.1-11.41,0-13.69.17-27-.05-40.32-.17-9.76.91-8.33,8.42-12.06,1.5-.74,3.26-.53,4.82-.71,5.93-.69,11.4-3.13,17.37-3.89a30.18,30.18,0,0,0,15.11-6c-2-1.47-3.89-1.48-5.89-1.52-14.18-.29-28.15,1.54-42.09,3.91a127,127,0,0,0-41,14.1c-1.58.88-3.55,2.17-2.15,4.93ZM1149,673.4v69.85c0,1.34-.07,2.65,1.37,3.46,3.6,2,10.57-1.76,10.58-5.8q0-32.92,0-65.86c0-.87.4-1.88-.07-2.29Zm-392-1.72c0,22.9,0,45,0,67.15,0,6,1,7,7.09,7.12,1.56,0,3.29.63,4.55-.42V673.19C764.78,672.6,761.07,673.82,757,671.68Zm257-9.6c9.12-.77,16.74,2.39,24.51,4.88C1031.31,661.93,1023.91,657.89,1014,662.08ZM898.38,660.8c-12.45-1.41-12.91-1.3-21.66,5.29C883.45,662.53,890.88,661.87,898.38,660.8Z" transform="translate(-645 -202)"/><path class="cls-3" d="M900.92,647.76c1.67,3.6,5.58,2.84,8.35,4.31.13,1.14,1.15.81,1.8,1.09a11.91,11.91,0,0,0,2.95,1.7c2.44.58,3.57,2,2.71,4.29s-3.14,2.28-5.05,1.48c-3-1.27-6.27-2.4-8.81-4.37-6.33-4.89-12.85-5.39-19.92-2.15-3.18-.05-6.8.42-5.93-4.72.41-2.36,3.39-1.76,4.38-3.92-3.45-2.62-7.62-1.8-11.12-1.19-3.66.64-6.16-.29-7-3.22-1-3.14,2.36-3.73,4.61-4.64.28-.11.45-.48.82-.9-4.22-3.13-9.44-2.14-14.07-3.26-3-.73-5.41-1.42-5.35-4.39s2.51-4.4,5.67-4c.27,0,.59-.23,1.17-.48-1.61-2.69-3.28-3.89-6.73-2.73-4.26,1.43-12-1.41-13.5-4.1-.6-1.07-1.42-2.16-.44-3.09s1.85-1.93,3.44-1.18c2.37,1.11,4.89.44,7.64.55a37.91,37.91,0,0,0-2.16-4,40.14,40.14,0,0,0-3-3.38c-8.13,3.17-15.68-.75-15.11-8.09,3.85-1.79,7.19,1,10.85,1.45-1.4-5.67-1.45-5.28-6.45-6-3-.44-6.45-.32-9-2.71-1.89-1.73-2.36-4-1.08-5.76,1.09-1.52,3.19-2,5.28-.57,1.29.89,3,1.18,4.9,1.88-.25-3.3-2.92-5.44-3-9-5,2.18-9,.13-12.87-1.78-2-1-4-2.62-3.1-5.24,1-3.2,3.53-2.63,6-1.71,1.83.69,3.68,1.33,5.73,2.06,1.14-3.42-2.14-5.37-2-8.19-9.21.5-10.89-.39-13.64-6.14-1.06-2.22-1.4-4,.6-5.75,2.2-2,3.68,0,5.08,1.06,1.57,1.12,2.84,2.63,5.29,2.9-.23-2.29-.75-3.38-3.29-3.95-6.45-1.45-8.71-4.73-8.21-10.61,1.75-1.22,3.36,0,5.32.75-1.06-3.75-1.81-7-4.7-9.25-.15-3-1.59-5.91-.86-9h3c-2.09-2.27-3.9-4-5.46-6-1.34-1.66-2.77-4-1.13-5.73,4.52-4.65.7-6.54-2.41-8.83-.47-2.08-3.27-2.88-2.92-5.4.5-1.14,3.32-.35,2.27-2.85-1.61-3.82,1.71-8.62-2.38-12.07a2.37,2.37,0,0,1,.26-2.6c1.8-1.24,4.06.49,5.79-1.39-1.35-1.67-1.93-3.24-4.77-1.26-4.59,3.2-5.78,2.38-6.89-3.26-2.31,1.16-5,4.09-5.77-1.44-.11-.77-.7,1.13-1.56,1-4.06.91-4.51-2.26-5-4.81-.41-2.35,0-4.83,0-7.25,3-1.37,5.1,1,7.57,1.71,1.84-1.13,1.2-2.94,1.3-4.54.13-1.84.35-3.69,2.62-4.12,2.69-.51,3.52,1.63,4.06,3.45.61,2.1,1.27,4.35.28,6.31.88,1.81,2.62.8,3.52,1.77a2.43,2.43,0,0,0,.27-.48c.69-2.69.6-6.78,4.47-6.13,5,.84,3.29,5.79,2.33,8.18-1.5,3.73-.54,6.05,1.69,8.68,2.26-1.23,5-2.38,6.25.49s1.49,6.44-1.43,8.56c-2.47,1.8-2.58,3.11-.53,5.15,2-.1,3.88-2.9,5.74-.76,1.59,1.84,1.08,4.47.3,6.57-.87,2.32-1.16,4.9-3.87,6.52s.42,4.41-.37,6.68l4.1-3.87c6.31,5.53-1.05,9.63-1.27,14.32,5.59,4.18,5.59,4.18,3.13,13.08,8,2.24,6.16,6.17,3.42,12-.82,1.75-2.56,3-1,5.12,1.06.07,1.12-.65,1.14-1.28.11-3,2.3-3.81,4.38-3.16a4.12,4.12,0,0,1,2.52,5.25c-.82,2.81-1.45,6-3.2,8.14-2.1,2.63-1.12,4.39.21,6.69.17-2.79-.1-5.69,4.05-5.41,4,.26,3.11,3.16,3.2,5.5s.36,5-1.27,7.17c-2.28,3-1.94,5.74.64,8.35,1.09-.53.35-1.79.87-2.64,1-1.65,1.44-3.9,4.22-3.14,2.48.67,2.93,2.54,2.46,4.62-.74,3.26-.33,6.71-1.17,9.78s-.1,5,1.92,7.05c1.65-1.92,2-4.25,2.32-6.67.23-2,.59-4.19,3.37-3.84,2.51.31,3.93,2,3.57,4.51-.58,4-.54,8.6-2.57,11.81-1.38,2.19-.88,3.49,0,4.31,2.19,2,3,5.18,6.07,6.64,1.28-2.58.06-5.44,1.2-8.08.9-2.08,1.44-3.79,4-3.31a3.85,3.85,0,0,1,3.33,4.28c-.26,4.54-.16,9.23-3.83,12.43,2.88,2.77,5.56,5.34,8.41,8.1a59.14,59.14,0,0,0,1.32-7.46c.17-3.08,1-6.42,4.23-6,3.58.51,3.37,4.58,3.48,7.57a17.26,17.26,0,0,1-.92,4.79c-2,7.73-2,7.72,5.26,12.7-.62-3.89.72-7.3,1.11-10.84.24-2.12,1.39-4.27,3.43-4.2s3.42,2.18,3.58,4.55a19.43,19.43,0,0,1-3.86,13.52l5.43,2.88c.5-2.86.82-5.56,1.48-8.18s1.57-5.39,4.36-6.81c4.79,4.32,4.86,12,0,18.08Z" transform="translate(-645 -202)"/><path class="cls-3" d="M1007.1,653.88a17.12,17.12,0,0,0,8.88-4.72c2.53-.4,1.65-1.39.82-3-3.34-6.39-2.58-12.24,1.77-15.9,5.65,3.3,3.26,9.92,6,14.5a6.41,6.41,0,0,0,4.29-2.44c-1.73-6-5.89-12.14-.26-18.76,5.58,3.92,5.17,9.53,5.6,15,3.73-.13,4.36-4.46,7.9-5.17-3.79-4.87-3.2-10.65-4.37-16-.48-2.18,1.62-3,3.31-3.37s3.43-.12,3.91,2c.9,4,2.26,7.85,2.11,12.24l8.23-9.23c-2.71-2.89-3.57-7.44-3.33-12.35.12-2.48.58-5,3.31-5.24,2.45-.26,3,2,3.83,4.13,1,2.82.66,5.75,1.17,9.1,3.93-3,5.72-6.9,8.19-10.08-3.76-4.24-4.21-9.38-4.35-14.49a3,3,0,0,1,3.42-3.33c2.46.08,3,1.66,3.41,3.47.53,2.47.93,5,1.42,7.69,5.89-3.87,1.44-9,2.45-13.2.06-.26-.34-.59-.38-.91-.38-2.8-2.22-6.34,1.61-7.75,4.14-1.52,3.66,3.1,5.24,5,3-2,3.17-4.37,1.09-7.26-2.45-3.39-1.39-7.37-1.29-11.1.08-2.85,2.2-2.86,4.18-1.77a5.45,5.45,0,0,1,3,5.25c2.66-3.58.16-6.35-1.21-9.34-.61-1.32-.58-3-1.27-4.21-1.62-3-1.09-5.62,1.92-6.49,3.66-1.06,4.47,1.94,4.44,5.2,1.89-1.91,2.09-3.37.51-5.39a14.19,14.19,0,0,1-2.79-6.16c-.46-2.4-.38-4.14,2.22-5,3-1,3.85-2.74,2.05-5.53-.25-.39-.14-1-.32-1.44-.89-2.19-2-4.66.3-6.35,2.62-2,3.76,1.41,5.56,2.26,1.52-3.31-1.44-5-2.62-7.33-.66-1.32-1.29-2.66-1.95-4-1-2.07-1-4.21.94-5.5,3.07-2.07,3.36,2.09,5.77,2.73-.21-3,1.55-5.71-2.39-8.45-2.78-1.92-2.94-6.5-2.39-10.16.31-2.05,1.85-2.79,3.54-1a41.49,41.49,0,0,1,3,3.93c.63-3.56,1.84-6.85-1.7-9.79-2.07-1.72-.91-4.76-.7-7.14.12-1.3,1.6-2.33,3.36-1.32s3.22,1.05,4.47-.81,2.6-3.42.8-5.62a2.84,2.84,0,0,1-.72-1.78c.26-2.93-1.55-7.5,2.49-8.06s3.45,3.9,3.6,6.79l4.89-.71c-2.43-3.7.44-6.57,1.15-9.76a2.21,2.21,0,0,1,3.12-1.27c1.63.71,3.22,1.58,2.58,3.6a22.56,22.56,0,0,0-1.31,6.11c4,1.54,5.65-4.25,9.36-2.5,2.33,5.92,1.1,9.88-3.8,12.24-.4-.52-.8-1-1.61-2.1-.77,4.86-3.06,5.21-6.19,2.32-1.09,5.87-1.11,5.88-8.86,2-.85,1-2.54,1.41-2.19,3.5,1.8.81,4.76-1.82,5.68,1.62s-1.39,5-4.71,6.54c2.87,2.28,4.22,4.46,2.11,7.71-.9,1.4,1.59,1.51,2.53,2.22.23,2.26-1.4,3.28-2.94,4.35-2.47,3.06-7.34,5.46-2.27,10.38,1.27,1.24-.21,3.44-1.25,4.32-1.85,1.59-2.15,4.49-4.77,5.34-.87.28-.62,1.11-.14,1.54.28.26.92.13,1.4.18,1.65,2.71.83,5.39-.13,8.06a24.8,24.8,0,0,0-4.77,9.49c1.9,1.1,3.42-1.73,5.84.46,2,8.76-9.24,7.67-12.59,14.24,3.26-1,4.84-2.44,6.64-3.59,1.34-.85,2.69-2.37,4.72-.58s1.23,3.48.36,5.28c-1.94,4-5.56,6.63-9.61,6.47s-5,1.5-5.59,4.69c-.27,1.37-1.2,2.61-1.9,4.07,3.83,0,6.34-3.52,10.16-2.67,1.46.33,3,0,3.35,2a3.31,3.31,0,0,1-1.7,3.73c-3.91,1.55-7.1,4.67-12.17,3.66-4.15-.82-3.33,4.3-5.44,6.49a9.71,9.71,0,0,0,5.65-.56c2.06-.91,4,.26,5,2.2a3.53,3.53,0,0,1-1.85,5c-3.78,1.41-7.55,4-12.16,1.6l-3.91,6.64c4.24-.41,7.82-2.87,11.86-1.23,1.39,3.7-.61,6.08-3.65,7.42-2.48,1.09-5.7,2.47-8,1.74-5.3-1.71-5.68,1.88-7.15,4.89a4.19,4.19,0,0,0,4,0c3-1.58,5-.11,5.56,2.65s-1.18,5.66-3.93,5.6c-3.9-.09-7.53,2.19-11.69.46-3.3-1.38-4.63,2.17-6.89,4.8,3.71-.8,7.79-2.85,8.4,2.23.53,4.45-3.48,3.9-6.54,5-4,1.44-8.68-.14-12.24,2.73-.35.46-.24.59.23.8,2.28,1,5.65,1.86,4.44,5-1,2.48-3.09,4.42-7,3.47-3.31-.79-7.36-1.21-10.78,1.07.33.59.42,1,.66,1.15,2.42,1.31,5.12,2.81,3.44,6-1.44,2.71-4.36,1.7-6.69,1a7.37,7.37,0,0,0-2.89-.31c-5.34-2.57-9.84-1.19-14.4,2.3-2.94,2.24-6.68,3.42-10,5.18-2.8,1.48-5,.53-6.13-2-1.32-3.08,1.32-3.35,3.49-3.89a12.11,12.11,0,0,0,2.91-1.68C1005.73,654.89,1006.76,655,1007.1,653.88Z" transform="translate(-645 -202)"/><path class="cls-1" d="M798.16,495.93c-.35,2.52,2.45,3.32,2.92,5.39,1.46,5.82-4.23,9.18-5.09,14.55,5.19-.58,8.38,2.31,11.11,6-.73,3.1.71,6,.86,9-1.92,1.72-2.41,4.23-2.84,6.45-2.18,11.11-10.17,18.39-21.38,18.55-1.92,0-4.65-.32-5.4-3.09-.9-3.37,2.22-2.52,3.66-3.23,7.5-3.69,12.26-11.12,9.19-19.92-.45-1.28-.25-2.78-.36-4.3-13.1,8.41-17.76,8.86-21.73,2.21,8.86-1.92,13.23-6.66,13.83-15.29-5.49,0-10.23-2.22-14.45-5.57-2.74,1.87-2.66,4.36-2.41,6.74.21,1.92-.78,3.07-2.23,3.09-1.66,0-3.62-.57-3.81-2.82-.15-1.82-.54-3.85,0-5.47,2.37-6.55-1-11.61-4-16.75-2.19-3.77-3.06-7.65-1-11.52,1.34-2.48.7-3.91-1.14-5.48-3.65-3.12-3.29-7.15-2.6-11.34a38.59,38.59,0,0,1,9.35-19.83,15.47,15.47,0,0,0,4.22-11c-.12-2,1.24-2.92,3.11-4.76,5.77,10.39,10.13,20.94,12.11,32.46,0,2.42-.41,4.9,0,7.25.44,2.55.89,5.72,5,4.81,1.28,3.87-2.89,4.57-4,7-3.23,6.84-5.17,14.1-3.9,21.67.48,2.85,1.55,6.28,5.81,6.9a45.92,45.92,0,0,1,.07-7.05c.56-3.51,2.67-6.57,6-7.35C792.19,492.46,796.11,491.89,798.16,495.93ZM763.9,478.08c-2.08.68-1.7,2.41-1.92,4.05-1,7.37,2,14.22,2.37,22.53,4.24-7.31,7.58-13.81,9.49-20.9.6-2.25.88-5.28-2.46-6.21-1.29,2.81,1,6-1.37,8.49-.43-3.41.78-7.07-1.79-10.21L767.8,480l-.5,0-.54-4.28ZM766.82,440l-.69.69c-5.36,6.68-7.67,14.72-10.29,22.66-1.18,3.56-1.77,7,1.23,9.57s5.78.33,8.39-1.65c-2.15-3.23-.74-6,.65-9.69,2.29,11.39,6.31,15.34,13.38,13.62-3-4.32-5.8-9-4.32-14.29s-.34-9.74-2-14.34c-1.42-4-3.12-7.83-4.68-11.7Zm21.7,111.9c4.94-.16,7.62-3.42,10.56-6.9,4.89-5.78,3-12.69,3.7-19.09.31-2.77-2.37-5.3-5.69-4.67-2.57.49-3.52,2.63-2.81,5.4,2,7.86,1.15,15.15-4.7,21.28C788.51,549,787.49,550,788.52,551.9Zm-9.68-24.38c5.92.34,12.09-5.68,14.36-12.41,1.07-3.16-1.69-6.52,1.3-9.19,2.66-2.38,1.38-4.8-.23-7a4.45,4.45,0,0,0-5.76-1.49c-2.81,1.26-3,4-2.32,6.42C788.64,513.31,785.39,520.92,778.84,527.52ZM770.75,497c-.72,1.65-2.27,2.56-2.36,4.16l7.36,6.67C774.89,503.81,774.7,499.76,770.75,497Zm-10.2-21.31c-3.33,5.43-3.15,9.67,0,13.85C759.41,485.26,761.62,481,760.55,475.7Z" transform="translate(-645 -202)"/><path class="cls-1" d="M1107.8,532c1-2.67,1.78-5.35.13-8.06,3.08-3.84,6.76-6.58,12.29-6.24-1.73-5.54-7-9.41-5.26-15.52,1.54-1.07,3.17-2.09,2.94-4.35a6.63,6.63,0,0,1,8.64-2.78c6.5,2.62,6.78,8.47,6.46,14.49a5,5,0,0,0,4.16-2.91c3.89-7.8,1.38-22.07-5.1-28.09-1.25-1.16-2.48-2.62-.92-4.49,4.9-2.36,6.13-6.32,3.8-12.24,2.2-8.72,5.93-16.9,8.94-25.34,1-2.69,2.06-4.89,4.59-6.22,3.58,1.34,1.81,4.83,2.68,7.31,2.06,5.91,6.66,10.28,9.4,15.68,3.09,6.09,6.32,13.08,3.19,19.68a20.7,20.7,0,0,0-2,13.58c.81,4.76-2.82,9.15-5.26,13.24-1.55,2.6-1.32,4.67-1,7.34.4,3.57,2.59,7.6-1.6,10.68-2.53,1.86-3.72.78-3.82-1.68a14.93,14.93,0,0,0-2.24-7.83c-4.77,2.7-9,7.12-15.28,4.86-.28,7.16,4.29,14.28,14.35,16.35-3.56,7.74-9.54,4.69-21.52-2-5.06,16.72,3.77,23,12.5,25a3.28,3.28,0,0,1-2.83,4.34c-4.18,0-9,1.92-12.14-2.9,2.33-.17,4.76.57,7.38-.54-9.17-6.66-10.91-15.49-8.65-25.57.7-3.11-.91-4.42-3.55-4.67s-4.06,1.89-4.69,3.76c-.56,1.66-1.73,4.35,1.43,5.41,2,.68,1.56,3.17.71,2.93-3.15-.88-2.84,1.2-2.33,2.49.83,2.11,1.23,4.34,2.16,6.47,1.64,3.77,5.5,5.74,6.76,9.61-5.6-.27-7.95-4.56-10.06-8.68S1110.29,536.05,1107.8,532Zm38.1-43.95c-2.63-2.47,1-6.65-2.39-8.86-1.67.84-1.34,2.4-1.54,3.87-.56,3.92,2,7.16,2.2,10.88-4.55,3.5-.61,8.48-3.51,12.77,4.87-.5,6.19-3.14,7.42-5.88,1.75,1.12,1.27,4,4,5-.64-4.75.94-8.8,1.75-13,1.17-6,.22-9.61-1.61-11.95-.15.8-.29,1.59-.43,2.39-1.59-1.44.11-4.37-2.6-5.48-.16,1.5-.3,2.92-.47,4.61-1.12-1.47-.37-3.65-2.8-4.32Zm1.66-52.17c-2.36,5.85-4.56,10.62-6.17,15.58-.78,2.44-2.09,5.15-1.26,7.73,2.13,6.58.82,12.31-3.73,17.41,6.12,2.88,10.35-.7,12.81-9.54-1,1.49,4.34,3.44,1.07,6.34a22,22,0,0,1,2.74,1.11c3.86,2.17,6,1.45,7.47-2.62a7.86,7.86,0,0,0-1.52-7.83c-1-1.2-2-2.4-1.84-3.88.68-5.66-2.9-9.6-5.37-14C1150.07,443.17,1148.2,440.24,1147.56,435.88Zm-10.08,93.86c-.81-2.76-3.54-3-4.74-5.28-3.21-6-5.22-11.86-3-18.71.79-2.38.55-5.2-2.29-6.42s-5.25.3-6.79,2.66-.84,4.6,1.29,6.57c.89.82,2.48,1,2.73,2.84-2.53-.69-2.82.68-2.59,2.62C1123.12,522.35,1129.8,529.35,1137.48,529.74Zm17.78-38.62c2.8-4,3.94-8,0-12.43Zm-14.75-4.27c.77-5.94.77-5.94-2.62-6.42C1139.24,482.29,1138.38,484.61,1140.51,486.85Z" transform="translate(-645 -202)"/><path class="cls-1" d="M895.91,271.34h12.33c-1,2.12-2.78,2.16-4.24,3.25v28.55c-8.06-7.66-13-16.34-19.84-23.63,1.51,7.22-3.51,15.43,3.71,22.13h-10.7c5-1.72,3.81-5.77,3.82-9.31,0-5.81,0-11.63,0-17.35-.86-1.73-3.43-1.18-4.08-3.61,4.32-.48,7.87-1.38,10.84,3.57,3.53,5.89,8.4,11,13.65,17.64C899.49,284.8,904.63,277.21,895.91,271.34Z" transform="translate(-645 -202)"/><path class="cls-1" d="M1024.4,271.7c9-.39,17.57-2.31,24.66,3.91,4.72,4.13,5.88,9.46,4.4,15.5-1.66,6.75-6.79,9.76-12.84,10.73-5,.8-10.32.16-15.89-.44,5.1-1.2,4.32-4.83,4.27-8.17,0-3.82.11-7.64,0-11.46S1030.92,273.34,1024.4,271.7Zm9.8,27.21c10.13.17,15.16-4.18,14.81-12.34s-6.27-13.18-14.81-12.11Z" transform="translate(-645 -202)"/><path class="cls-1" d="M1006.13,292.37c-.94-7.7-6.38-5-10.69-5.35-.85,3.84-.26,7.6-.39,11.64,6.44.75,12.66,1.76,15.77-7.2,1.68,7.89-.28,10.55-6.24,10.55-6.17,0-12.33,0-18.66-.48,7.54-3.58,3.8-10,3.77-14.86s3.9-11.4-3.63-15.15h23.72a19.51,19.51,0,0,1-.41,8.12c-2.8-7.78-8.75-5.27-14.13-5.68V285c4.29-.51,9.6,2.24,10.84-5.33A23.83,23.83,0,0,1,1006.13,292.37Z" transform="translate(-645 -202)"/><path class="cls-1" d="M833.46,271.28h13.75c-.85,2.14-2.58,2.28-4.18,3.21,0,5.9-.12,12,0,18.17.1,4.07,3.56,7.39,7.11,7.27,4-.14,6.77-3.21,6.79-7.63,0-5.81,0-11.62,0-17.33-.88-1.7-3.42-1.18-4.06-3.61h11.43c-7.5,6-3.47,14.07-4.25,21.26-.59,5.48-4.88,10.18-10.56,10.08-8.16-.15-11.71-5-11.57-10.28.1-3.82,0-7.64,0-11.46C838,275,838,275,833.46,271.28Z" transform="translate(-645 -202)"/><path class="cls-1" d="M972.64,271.33v8.57c-2-4-4.54-6.5-9.62-5.68,0,7.4,0,14.87,0,22.34,0,2.34.18,2.34,4.44,4.91-4.8.95-9.06.57-13.79,0,5.65-1.79,4.25-6.18,4.28-10,.06-5.65,0-11.3,0-17.33-4.6-.19-8.09.64-8.4,7.12-2.62-3.84-.93-6.86-1.93-9.93Z" transform="translate(-645 -202)"/><path class="cls-4" d="M1122.11,553.81c-1.26-3.87-5.12-5.84-6.76-9.61-.93-2.13-1.33-4.36-2.16-6.47-.51-1.29-.82-3.37,2.33-2.49.85.24,1.32-2.25-.71-2.93-3.16-1.06-2-3.75-1.43-5.41.63-1.87,2.11-4,4.69-3.76s4.25,1.56,3.55,4.67c-2.26,10.08-.52,18.91,8.65,25.57-2.62,1.11-5,.37-7.38.54l-.4,0Z" transform="translate(-645 -202)"/><path class="cls-1" d="M919.47,271.14h15c-7.64,6.49-3.53,14.69-4.45,22-.41,3.26-1,7,3.81,8.43H920c8.38-3.72,4.57-10.18,4.8-15.24S927.76,275,919.47,271.14Z" transform="translate(-645 -202)"/><path class="cls-4" d="M957,320.19q55.23-.07,110.46-.13a8.38,8.38,0,0,1,1.66.29c1.07,1,.84,2.09.81,3-.64,20.41-.67,40.87-2.29,61.21-.65,8.19-6,15.58-10,22.95A207.68,207.68,0,0,1,1017.37,460a227.26,227.26,0,0,1-58.83,39.72,3.54,3.54,0,0,1-1.46,0q0-15.86-.08-31.72c3.9-2.16,8.29-1,12.44-1.85,9.33-2,17.43-5.73,23.85-12.93,7.22-8.08,4.6-20.11-6.29-27.26-9.07-6-19.28-8.16-30-8.18l.21-62.64c5.59,3.64,7.5-4.59,12.85-4,0,5.63,0,11.07,0,16.51,0,1.31.27,2.67-.52,3.8-2.35,1.63-5.24-2-7.44,1-1,1.41-2.14,11.27-1.26,12.83,3.26,5.75,9,9.4,12.55,15.06,1.2,1.92,3.83,4.59,7.37,4.22,2.14-8.32-8.57-9-9.23-15.47,3.78-2.83,8-5.09,12.28-2.85,7.3,3.79,14.35,7.89,23,7a21.8,21.8,0,0,0,3.9,12.18c6,8.53,5.82,8.63-1.36,16.32-.1.11-.3.13-.43.22-1.18.77-2.09,1.52-1.26,3.21a2.9,2.9,0,0,0,3.2,1.76c1.61-.12,3.33.36,4.86-.76.24-1.41.88-2.81.19-4.28l-.07.07c3.42-.22,4.37-3.77,6.93-5.15,2.75-1.48,2.85-3.77,1.53-6.2a20.18,20.18,0,0,1-2.23-10.8h0a2.66,2.66,0,0,0,0,.49c0,.11.17.28.22.27,4.74-1.31,6.83-5.41,9.33-9,5,.74,6.05,5.32,7,8.53a14.73,14.73,0,0,0,9.2,10.17c1.49.61,3.07,2.85,4.65.4,1.36-2.11-.44-3.45-1.89-4.49-3.47-2.51-2.22-5.46,0-7.3,3.83-3.17,4.15-5.53-.06-8.41-.85-.58-1.25-1.92-1.68-3-1.58-3.9-3.93-5.26-8.13-3.42-3.65,1.6-7.85,2.13-10-2.18-4.42-8.77-12.42-11.28-21-12.86A32.21,32.21,0,0,1,997,363.54c.7-1.82.59-3.75,2.15-5.09,1.59-.22,2.54,2.39,5.29.37-4.39-5.43-11-8.54-14.7-13.52.42-.73,1.19-1.46,1.06-1.93-1.63-5.48-5.84-7.94-11-9.35-4.76-1.29-10.46.2-14.28-5.29-.73,7.58-4.87,13.09-8.24,19Z" transform="translate(-645 -202)"/><path class="cls-5" d="M934,544.61c0,4.5,0,9,0,13.46,0,.95-.33,2.52.66,2.67,4.8.72,3.31,4.39,3.24,7-.24,8.08,1,16.23-.86,24.27-.27,1.17.24,2.52.43,4.17-9.31,3.53-17.55,9.57-27.16,12.8-11.42,3.82-13.69,3.17-21.55-6.81A208.59,208.59,0,0,1,865.57,566c-1.22-2.45-2.16-5-3.47-8.12,7.13-4.63,14.56-9.07,21.53-14.14,4.77-3.47,9.39-5.57,15-2.65,3,1.58,4.87.44,6.69-1.87a27.38,27.38,0,0,1,3.53-3.53c.86-.74,2.13-2,2.81-1.81,6.09,2,13.29-2.73,18.65,3,2.1,2.23,3.49,2.43,6.16.36,7.2-5.56,14.8-10.58,22.25-15.82,7.75,7,16.83,12.15,25.72,17.63,1.59,1,2.52.1,3.4-.49,3-2,5.81-4.2,8.79-6.39,3.3,3.29,6.9,6.25,9.7,9.84s5.61,3.61,9.13,1.84c1.61-.8,3.2-1.63,5.25-2.68,7.82,10.06,20.15,13.12,31.19,18.8-6.8,15.6-15.12,29.89-26,42.52-8.8,10.21-9.1,10.28-21.86,5.33-8.36-3.24-16.38-7.34-24.57-11-1.91-.86-2.51-2.09-2.48-4.21.14-9.33,0-18.66.09-28,0-1.49-.7-3.37,2-3.78,1.56-.24,1-1.89,1-2.94.07-4.33,0-8.65,0-13.23-2.46-.79-4.85-1.71-7.31-2.33-4-1-7.75-1.91-6.77-7.47.22-1.25-7.28-6-8.85-5.84-3.81.32-8,4.37-8.06,8.08,0,2.34-.63,3.5-3.23,4C941.86,541.89,938.07,543.37,934,544.61Z" transform="translate(-645 -202)"/><path class="cls-2" d="M957,508.23c7-1.78,13-5.63,19.24-9a222.13,222.13,0,0,0,31.41-21.05c11.65-9.31,22-19.91,31.89-31,6.22-6.94,11.34-14.62,16.57-22.25,5.09-7.43,9.18-15.41,13.9-24.62v7.42c0,23.32.4,46.66-.12,70-.4,18.56-2.12,37.09-7.94,54.9-2.53,7.78-4.64,15.73-8.24,23.23-11-5.87-23.79-8.55-31.48-19.49a8.15,8.15,0,0,0-2.4.68c-7.33,5.32-12.12,1.22-16.64-4.32-1.67-2.06-3.59-3.92-5.51-6a32.12,32.12,0,0,0-8.32,5.41c-2.14,2-4.48,2.31-7,.6-7.09-4.83-14.7-8.92-21-14.86-1.16-1.09-2.53-1.92-4.23-1C957,514,957,511.1,957,508.23Z" transform="translate(-645 -202)"/><path class="cls-4" d="M957,508.23c0,2.87.07,5.75.11,8.62-7.33,6.17-16,10.56-23.16,17.34-4-3.79-8-7-13.85-4.28a3.79,3.79,0,0,1-3.32-.57c-4.2-2.46-7.56-.37-10.18,2.6-3.21,3.65-6.14,6.21-11.36,3.38-3.14-1.69-6.11-.92-9.34,1.53a159.81,159.81,0,0,1-26.09,16.09c-6.09-16.29-11.93-32.62-14-50.13-4-34-2.52-68.06-2.72-102.11a17.66,17.66,0,0,1,.92-3C866.53,451.17,905,486.74,957,508.23Z" transform="translate(-645 -202)"/><path class="cls-2" d="M957,468.05q0,15.85.08,31.72c-15.45-5.57-29.15-14.33-42.43-23.73A176.12,176.12,0,0,1,872,432.92c-4.9-7-9.93-13.87-12.92-22l-.15.11c6.6,1.58,12.54-3.08,15.28-10.6,1.19-3.27,1.71-8.32,7.33-8.29,1.05,2.16,1.9,4.7,4.1,5.9,6.19,3.36,4.72,8,2.32,12.75-1.64,3.27-.62,5.35,2.23,7.25a18.86,18.86,0,0,1,7.3,9.73c3.76.75,6.66.09,8.13-3.57-3.1-4-7.63-6.79-9.65-11.55,5.39-5.77,10.13-11.51,10.27-19.38a26.67,26.67,0,0,0,18.36-4.37c6.09-4.13,10-4,16.37.63-.76,3.38-3.42,5.14-5.91,7.23s-5.3,4.2-3.34,8.67c7.77-2.91,11.12-10.15,16.4-15.19,3-2.9,4.07-6.36,3.21-11.29-1.28-7.39-.93-8-7.93-6.39-2.72-7-.41-14.26-1.54-22,2.48,1.14,4.52,1.58,5.88,2.8,4.64,4.13,5,4.23,8.94-.2.18.7.34,1.32.51,1.95L957,417.83c-12-.24-23.14,2.31-33.1,9.17-6.76,4.66-12.53,14.67-6.36,24.14,5.87,9,15.05,12.06,24.57,14.93C947,467.54,952.23,465.93,957,468.05Z" transform="translate(-645 -202)"/><path class="cls-2" d="M957,320.19l.27,27.5c-2,3.67-2-.9-3.16-.79v0a45.77,45.77,0,0,1-2.35-4.7c-1.16-3.23-5.3-5.57-2.87-9.94.49-.88-.66-1.93-1.61-2.14-1.25-.29-3-.66-3.6.76-1,2.59-3,1.86-4.83,2.08-7.4.87-13.88,3.39-17.68,10.4-.19.35,0,.91,0,1.38.84-.08,1.39-1.22,2.34-.35-.19.53-.29,1.49-.62,1.58-4.88,1.31-5.39,8.17-11,8.63-.6.05-1.11,1.14-1.67,1.75-1.17,1.26-3.92,2.17-.84,4.43.56-1.26,1.1-2.48,1.63-3.7,1.11-.56,2.07-1.75,3.65-.65-1.7,1.82-2.54,3.81-1.07,6.48,1.69-2.11,2.12-5.81,7.52-4.21-5.94.56-5.05,6.45-9.77,7.82-3.77,1.08-7.53,2.54-11.4,3.43-6.76,1.55-13.38,3.46-16.72,10.28-2.72,5.57-7.24,5.35-12,4.38-4.12-.83-12.47,6.28-12.31,10.58,0,1.24.89,1.42,1.5,2.09,3.88,4.31,3.81,6.58-.09,10.78-.81.89-1.6,1.69-1.43,3l.15-.11c-4.89-9.16-9.42-18.44-11.06-28.86-3.07-19.46-3-39.08-3-58.7v-2.74c.6-.31.87-.58,1.15-.58Q901.59,320.11,957,320.19Z" transform="translate(-645 -202)"/><path class="cls-3" d="M977,601.41c13.16,3.69,23.45,11.84,36.75,13.76-5.16,6.67-11.6,10.94-17.57,15.71-10.81,8.63-23.73,13.17-36.18,18.62-1.65.73-3.18.2-4.83-.18-14.8-3.38-26.92-11.78-38.78-20.61-4.87-3.63-9.38-7.76-15-12.49,13.64-2.75,24.32-9.56,36.67-15.33,0,9,.25,17.08-.1,25.09-.18,4.12,1.43,5.61,5.12,7,10.57,4,20.7,2.43,30.93-1.06,2.61-.89,3.09-2.5,3.06-4.9C976.94,618.89,977,610.76,977,601.41Z" transform="translate(-645 -202)"/><path class="cls-2" d="M959.28,594.36c4.61-1.42,8.68,1.2,13.34.59v32.68c-4.08,1.26-8.36,3-13.34,3.43Z" transform="translate(-645 -202)"/><path class="cls-2" d="M954.72,630.92c-4,.29-7.34-1.81-11.07-2.13-1.7-.15-1.65-2.16-1.64-3.71q0-14.67,0-29.34c4-2.5,8.27-1.55,12.7-1.74Z" transform="translate(-645 -202)"/><path class="cls-2" d="M959,561.06l13.59,3.29c2,9.59-2.57,19.91,3.91,29.86-6.47-.84-12.06-1.48-17.61-2.33-1.47-.22-2.65-2.1-1.72-3,3.46-3.16,1.53-7,1.74-10.49C959.26,572.82,959,567.16,959,561.06Zm2.2,5.27v14.55c2.91-.3,5.54,2.29,8.56.69V567.25C966.86,566.56,964.27,565.27,961.21,566.33Z" transform="translate(-645 -202)"/><path class="cls-2" d="M954.84,561.15v26.27A23.81,23.81,0,0,1,942,588.66c0-7.54,0-15.14,0-22.74,0-2.32,1.9-2.44,3.3-2.82C948.26,562.32,951.29,561.86,954.84,561.15Zm-1,4-9.62,1.26v15.82c3.3-1.14,6.49-1.15,9.62-1.39Z" transform="translate(-645 -202)"/><path class="cls-2" d="M975.85,547.36c.11,3,.44,5.75-.24,8.65-4.65-1-9.2-2-13.69-3.11-2-.51-3.38-1.63-3-4.17A36.86,36.86,0,0,0,959,543C965.1,543.61,970.19,546.49,975.85,547.36Z" transform="translate(-645 -202)"/><path class="cls-2" d="M938.63,556c-1.51-7.8-1.51-7.81,5.46-10,1.67-.54,3.37-1,5-1.52l5-1.57c2.14,7.9,1.57,9-5.69,10.92C945.21,554.65,941.91,555.29,938.63,556Z" transform="translate(-645 -202)"/><path class="cls-2" d="M806.87,669c21.64,7.35,42.8,13.46,64.66,17.1,12.12,2,24.32,2.83,36.52,4,23,2.27,46,2,69,1.77,18.91-.17,37.75-1.75,56.58-3.76,21.2-2.26,41.58-7.59,61.75-14.12,5-1.62,10.24-2.65,15.71-5.51-.87,16.06,1.12,31.44-1.1,46.78a42.73,42.73,0,0,0,0,6c0,10.88-3.57,16.12-14.06,19.62-19.3,6.43-38.89,11.56-59.16,14.17-12.82,1.66-25.65,3-38.53,4.12a205,205,0,0,1-21.29.65c-5.16-.08-10.16,1.34-15.27,1.08-12.58-.63-25.22-.35-37.75-1.21-14.13-1-28.26-2.42-42.35-4.49A390.57,390.57,0,0,1,827.81,743a41.3,41.3,0,0,1-13.06-6.07,16.14,16.14,0,0,1-7-12.72C806.28,705.92,807.67,687.68,806.87,669Zm284.74,68.72c2.55-1.08,4.15-3.22,3.72-5.74-.49-2.91-3.28-3.16-5.82-3-1.61.08-3-.21-3.55-2.31,2.88-3.08,5.67-2,8.55.54a5.38,5.38,0,0,0-1-6c-2.25,2.89-6.12,1.41-8.91,3.39-1.8,1.27-2,3-2.29,4.41s1.41,2.7,3.28,3c2.15.36,4.28.92,6.41,1.4-.4,1.37-.72,2.43-1,3.49-3.3,1.71-6.25,1.23-8.93-2.38a11,11,0,0,0,.56,6.62C1085.58,739.39,1089.24,740.33,1091.61,737.75Zm-265.23-14c1.56.91,1.24,3.4,3.75,4.11-.94-2,2.1-5.7-3-5-.88-.66-1.77-1.29-2.63-2-2-1.54-4.08-1.63-5.79,0s-.23,3.66.46,5.44c.47,1.22,2,1.25,2.6,2,1.76,2.34,5.9,3.32,4.91,7.51-5.12.25-6.23-4.52-9.26-6.85-1.73,5.73,3.1,5.91,6,7.62,2.36,1.4,4.79,2.45,6.93-.45s-.87-4-2.14-5.61c-2.19-2.84-5.77-4.56-6.73-8.64C822.91,723.35,825,722.56,826.38,723.75ZM965.84,714l9,19.62,9.61-22.14c1.69,13.35,1.1,16.87-3.67,20.2a38,38,0,0,0,12.19-.11c-4.1-3.46-4.12-23.54-.26-28.2a24.42,24.42,0,0,0-8.1-.14c-1.39,3.32-2.76,6.64-4.15,9.95s-2.74,6.48-4.52,10.66c-2.26-5.31-4.21-9.61-5.94-14-2.4-6.08-5.37-7.35-12.41-4.35,4.08.15,4.7,2.18,4.48,5.19-.27,3.81,0,7.66-.07,11.49s1.33,8.17-5.1,10.51c5.07.31,8.54,1,11.86-.35C961.64,727.08,966.64,720.05,965.84,714Zm-122.3,7.09c2-1.87,1.46-3.61,1.47-5.21,0-5.16.13-10.32,0-15.47-.1-2.73.13-5.14,3.43-6.83l-8.57-2.44-8.46,17c-3.49-5.9-5-12-7.28-17.69-2.14-5.28-4.23-6.59-10.59-6,.66,1.86,3.58,1.71,3.51,4.38-.18,6.82.13,13.65-.15,20.46-.18,4.18-.5,4.17,4.4,5-1.9-6-1-12-.42-18.18,2.88,7,5.75,14,8.9,21.61,4.24-6.44,6.45-12.83,10-18.55-1.18,6.55,3.1,13.86-2.67,19.81C838.72,720.56,841.47,719.8,843.54,721.06ZM1052,698.64c4.69-1.85,6.68.2,7.76,5.24a15.05,15.05,0,0,0,.76-9.92l-23.3,4.52a13.87,13.87,0,0,0,.21,6.25c2.72-1.61,3.92-6,8.08-4.26,1.7,11.65.75,22.25-2.63,25.18a23.79,23.79,0,0,0,11-1.86C1050.21,715.24,1053,706.68,1052,698.64Zm-36.06.94c-5.16,10.76-7.36,22-13.68,31.68l9.25-.66c-3.47-2.73-3.3-2.68-2.5-5.92,1.72-7,7.77-1.47,10.45-4.8,2.15,3.23,3.19,5.68,1.09,8.7,3.58-1.08,7.13.21,9.72-1C1023.53,719.27,1021.91,708.66,1015.93,699.58ZM918,731.67a25,25,0,0,0,8.72,0c-.07-2.26-2.13-1.25-2.51-2.5,1.76-5.72,5.74-8.15,10.67-5.85,3.72,1.73,3.78,5,1.38,8.69,3.14-.93,5.72,2.28,9.17.05-5-9.55-7.4-20.08-13.18-29.47C926.52,712.17,925.25,723,918,731.67Zm162.49-13.93c5.53,0,8.75-1.69,12-2.62-6.79-7.57-8-17.65-13.59-26.26-6,10.75-7.39,23.12-14.06,33,3.62.29,3.62.29,6.8-1.53-1.53-6.07-.19-9.71,10.54-11C1084.14,712,1086.66,714.63,1080.53,717.74Zm-210.8-21.36c-3.77,5.12-5.07,10.12-7.21,14.69-2.06,4.39-3.25,9.19-8.09,12.68h7.35a22.92,22.92,0,0,1,1.8-7.53c3.45-.82,6.6,1.36,9.91,1.09,1.91,5.56,1.91,5.56-.38,8.3,3.06.61,6,3.2,9.06-.35C877.52,716.08,875.25,705.9,869.73,696.38Zm44.06,13.77v-8c-8-.52-15.91.76-23.4-2.51v9.81c2.64-4.68,5.09-6.94,9.63-4.56,0,5,0,10.3,0,15.58,0,3.48.8,7.31-3.66,9.28h8.92V705.05C910,703.65,911.79,706.49,913.79,710.15Zm68.5,37.5c4.36,2.2,6.72,8.53,12.83,5.11-3.6-.71-5.37-3.36-7.47-6.15,2.43-1.07,5-2.14,4.21-4.9-.63-2.17-2.77-2.93-5.25-2.77-3.64.23-7.3.06-11.4.06,4,2.63,3.7,12-.1,15.53,3.35,1.59,6.32-.58,10.54-.89C980.94,752.91,982,750.44,982.29,747.65ZM928.17,754c6.71,0,8.88-1.87,8.84-7.59,0-5.93-7.26-10.25-13.88-7.94-1.81.63-4.44.14-5.24,3.37C916,749.45,919.66,754,928.17,754Zm-62.65-21.76c3.59,3.36,3.59,12.49,0,14.26,2.37,2.69,5.7.63,8.75,1.88-3.29-1.71-2.42-4-1.82-6.37,1.27,0,2.26,0,3.25,0,2.52.11,5.3.3,5.71-3s-2.36-5.14-4.8-5.61C873,732.7,869.36,731.06,865.52,732.25ZM1034,735.86c-.44,5,1.38,9.64-1.57,13.9a10.45,10.45,0,0,0,7.36-.88v-13.7c2.58-1.51,3.2,1.53,4.91,2.72a7.71,7.71,0,0,0-.09-5c-5.59.59-11.06.88-16.42,2.41v5.08C1029.33,737.55,1031.19,736.74,1034,735.86Z" transform="translate(-645 -202)"/><path class="cls-2" d="M854,677.35c7-1.14,13.67.92,20.07-1.3a84.38,84.38,0,0,0,10.83-4.1,23.53,23.53,0,0,1,19.3-1.36c6.43,2.24,12.91,2.56,18.62-1.62,7-5.1,14.74-4.49,22-2.71,9.74,2.38,19.11.49,28.51-.63,3.93-.47,7.62-.89,10.77,1.11,8.24,5.22,16.69,6.94,26,3.29,6.35-2.5,12.2-.25,17.73,2.44,8.69,4.23,17.78,5.13,27.2,4.56a22,22,0,0,1,6.92.59c-3.82,3.19-8.69,3.47-13.11,4.23-16.12,2.77-32.49,3.54-48.76,5.12-.33,0-.66,0-1,0-17.59-.36-35.16,2-52.74.91-14.34-.93-28.74-.72-43-2-16-1.48-32-3.41-47.72-7.07C855.15,678.67,854.85,678.16,854,677.35Z" transform="translate(-645 -202)"/><path class="cls-6" d="M1144,669.35v51a27.61,27.61,0,0,0-14.16-8.27c-5-1.28-10.08-2.57-15.93-2.22.77-15.17-1.11-30,1-44.87.5-3.49-1.86-4.91-4.58-6.1-7.67-3.33-16-3.8-24-5.84a91.73,91.73,0,0,1-18.75-6.91c12-7.18,85.47,4.89,93,21.48C1155.48,670.22,1149.92,668.38,1144,669.35Z" transform="translate(-645 -202)"/><path class="cls-6" d="M772.87,668H757.46c-1.4-2.76.57-4,2.15-4.93a127,127,0,0,1,41-14.1c13.94-2.37,27.91-4.2,42.09-3.91,2,0,3.93,0,5.89,1.52a30.18,30.18,0,0,1-15.11,6c-6,.76-11.44,3.2-17.37,3.89-1.56.18-3.32,0-4.82.71-7.51,3.73-8.59,2.3-8.42,12.06.22,13.31.05,26.63.05,40.32-10.38,2.15-21.38,2.35-30.1,11.41Z" transform="translate(-645 -202)"/><path class="cls-2" d="M1149,673.4l11.88-.64c.47.41.07,1.42.07,2.29q0,32.94,0,65.86c0,4-7,7.82-10.58,5.8-1.44-.81-1.37-2.12-1.37-3.46Z" transform="translate(-645 -202)"/><path class="cls-2" d="M757,671.68c4.06,2.14,7.77.92,11.65,1.51v72.34c-1.26,1.05-3,.45-4.55.42-6.14-.12-7.09-1.13-7.09-7.12C757,716.7,757,694.58,757,671.68Z" transform="translate(-645 -202)"/><path class="cls-2" d="M1007.1,653.88c-.34,1.14-1.37,1-2.21,1.23-5.74-3.71-12.23-1.39-18.31-2.3C990.65,648.68,999,649.11,1007.1,653.88Z" transform="translate(-645 -202)"/><path class="cls-2" d="M1014,662.08c9.92-4.19,17.32-.15,24.51,4.88C1030.73,664.47,1023.11,661.31,1014,662.08Z" transform="translate(-645 -202)"/><path class="cls-2" d="M898.38,660.8c-7.5,1.07-14.93,1.73-21.66,5.29C885.47,659.5,885.93,659.39,898.38,660.8Z" transform="translate(-645 -202)"/><path class="cls-2" d="M911.07,653.16c-.65-.28-1.67.05-1.8-1.09,6.85-4,8.32-4,17.56-.26C921.26,652.26,916,651.34,911.07,653.16Z" transform="translate(-645 -202)"/><path class="cls-2" d="M798.16,495.93c-2-4-6-3.47-9.09-2.75-3.34.78-5.45,3.84-6,7.35a45.92,45.92,0,0,0-.07,7.05c-4.26-.62-5.33-4.05-5.81-6.9-1.27-7.57.67-14.83,3.9-21.67,1.14-2.41,5.31-3.11,4-7,.86.16,1.45-1.74,1.56-1,.81,5.53,3.46,2.6,5.77,1.44,1.11,5.64,2.3,6.46,6.89,3.26,2.84-2,3.42-.41,4.77,1.26-1.73,1.88-4,.15-5.79,1.39a2.37,2.37,0,0,0-.26,2.6c4.09,3.45.77,8.25,2.38,12.07C801.48,495.58,798.66,494.79,798.16,495.93Z" transform="translate(-645 -202)"/><path class="cls-2" d="M807.1,521.86c-2.73-3.68-5.92-6.57-11.11-6,.86-5.37,6.55-8.73,5.09-14.55,3.11,2.3,6.93,4.19,2.41,8.84-1.64,1.69-.21,4.07,1.13,5.73,1.56,2,3.37,3.7,5.46,6Z" transform="translate(-645 -202)"/><path class="cls-2" d="M1131.14,474.05c-1.56,1.87-.33,3.33.92,4.49,6.48,6,9,20.29,5.1,28.09a5,5,0,0,1-4.16,2.91c.32-6,0-11.87-6.46-14.49a6.63,6.63,0,0,0-8.64,2.78c-.94-.71-3.43-.82-2.53-2.22,2.11-3.25.76-5.43-2.11-7.71,3.32-1.5,5.62-3.12,4.71-6.54s-3.88-.81-5.68-1.62c-.35-2.09,1.34-2.51,2.19-3.5,7.75,3.91,7.77,3.9,8.86-2,3.13,2.89,5.42,2.54,6.19-2.32C1130.34,473,1130.74,473.53,1131.14,474.05Z" transform="translate(-645 -202)"/><path class="cls-2" d="M1115,502.18c-1.7,6.11,3.53,10,5.26,15.52-5.53-.34-9.21,2.4-12.29,6.24-.48-.05-1.12.08-1.4-.18-.48-.43-.73-1.26.14-1.54,2.62-.85,2.92-3.75,4.77-5.34,1-.88,2.52-3.08,1.25-4.32C1107.62,507.64,1112.49,505.24,1115,502.18Z" transform="translate(-645 -202)"/><path class="cls-4" d="M766.82,440l1.68-5.13c1.56,3.87,3.26,7.73,4.68,11.7,1.65,4.6,3.49,9,2,14.34s1.27,10,4.32,14.29c-7.07,1.72-11.09-2.23-13.38-13.62-1.39,3.67-2.8,6.46-.65,9.69-2.61,2-5.35,4.25-8.39,1.65s-2.41-6-1.23-9.57c2.62-7.94,4.93-16,10.29-22.66,4.09,3.68.31,8.43,1.24,13,2.29-2,2.9-4.11,2.51-6.24C769.39,444.82,772.05,440.73,766.82,440Z" transform="translate(-645 -202)"/><path class="cls-4" d="M788.52,551.9c-1-1.86,0-2.86,1.06-4,5.85-6.13,6.72-13.42,4.7-21.28-.71-2.77.24-4.91,2.81-5.4,3.32-.63,6,1.9,5.69,4.67-.7,6.4,1.19,13.31-3.7,19.09C796.14,548.48,793.46,551.74,788.52,551.9Z" transform="translate(-645 -202)"/><path class="cls-4" d="M778.84,527.52c6.55-6.6,9.8-14.21,7.35-23.71-.63-2.46-.49-5.16,2.32-6.42a4.45,4.45,0,0,1,5.76,1.49c1.61,2.24,2.89,4.66.23,7-3,2.67-.23,6-1.3,9.19C790.93,521.84,784.76,527.86,778.84,527.52Z" transform="translate(-645 -202)"/><path class="cls-2" d="M770,486c2.35-2.53.08-5.68,1.37-8.49,3.34.93,3.06,4,2.46,6.21-1.91,7.09-5.25,13.59-9.49,20.9C764,496.35,761,489.5,762,482.13c.22-1.64-.16-3.37,1.92-4.05,1.08,4.54-1.36,9.87,2.88,14C769.33,490.53,769.4,488.14,770,486Z" transform="translate(-645 -202)"/><path class="cls-4" d="M770,486c-.61,2.1-.68,4.49-3.23,6.07-4.24-4.16-1.8-9.49-2.88-14l2.86-2.3.54,4.28.5,0,.42-4.21C770.79,479,769.58,482.63,770,486Z" transform="translate(-645 -202)"/><path class="cls-4" d="M770.75,497c4,2.75,4.14,6.8,5,10.83l-7.36-6.67C768.48,499.57,770,498.66,770.75,497Z" transform="translate(-645 -202)"/><path class="cls-2" d="M766.82,440c5.23.73,2.57,4.82,3.06,7.48.39,2.13-.22,4.2-2.51,6.24-.93-4.6,2.85-9.35-1.24-13Z" transform="translate(-645 -202)"/><path class="cls-4" d="M760.55,475.7c1.07,5.32-1.14,9.56,0,13.85C757.4,485.37,757.22,481.13,760.55,475.7Z" transform="translate(-645 -202)"/><path class="cls-4" d="M1147.56,435.88c.64,4.36,2.51,7.29,4.2,10.31,2.47,4.39,6,8.33,5.37,14-.17,1.48.89,2.68,1.84,3.88a7.86,7.86,0,0,1,1.52,7.83c-1.44,4.07-3.61,4.79-7.47,2.62a22,22,0,0,0-2.74-1.11c3.27-2.9-2.12-4.85-1.07-6.34-2.46,8.84-6.69,12.42-12.81,9.54,4.55-5.1,5.86-10.83,3.73-17.41-.83-2.58.48-5.29,1.26-7.73C1143,446.5,1145.2,441.73,1147.56,435.88Zm1,19.41c-1.2-4-.13-8.36-1.44-12.41C1146.12,447.15,1145,451.43,1148.51,455.29Zm6,10.42c-1,1.21-2.09,2.21-1.17,4C1154.19,468.47,1155.39,467.47,1154.53,465.71Z" transform="translate(-645 -202)"/><path class="cls-4" d="M1137.48,529.74c-7.68-.39-14.36-7.39-15.34-15.72-.23-1.94.06-3.31,2.59-2.62-.25-1.82-1.84-2-2.73-2.84-2.13-2-2.88-4.14-1.29-6.57s3.85-3.92,6.79-2.66,3.08,4,2.29,6.42c-2.27,6.85-.26,12.71,3,18.71C1133.94,526.7,1136.67,527,1137.48,529.74Z" transform="translate(-645 -202)"/><path class="cls-2" d="M1144.17,493.94c-.25-3.72-2.76-7-2.2-10.88.2-1.47-.13-3,1.54-3.87,3.43,2.21-.24,6.39,2.39,8.86a7.68,7.68,0,0,0,3.46,6.46c3.58-3.2,2.83-7.25,2.41-11.24l.42-2.39c1.84,2.34,2.79,5.95,1.62,11.95-.81,4.2-2.39,8.25-1.75,13-2.71-1-2.23-3.88-4-5v.09c-.69-1.58-.18-4-2.89-4.16l.09.14a2.66,2.66,0,0,0-1.21-3Z" transform="translate(-645 -202)"/><path class="cls-4" d="M1151.77,483.27c.42,4,1.17,8-2.41,11.24a7.68,7.68,0,0,1-3.46-6.46v-10c2.43.67,1.68,2.85,2.8,4.32.17-1.69.31-3.11.47-4.61C1151.88,478.9,1150.18,481.83,1151.77,483.27Z" transform="translate(-645 -202)"/><path class="cls-4" d="M1148.08,500.83c-1.23,2.74-2.55,5.38-7.42,5.88,2.9-4.29-1-9.27,3.51-12.77l-.1,0c-.65,1.42-.33,2.45,1.21,3l-.09-.14c.17,1.94.08,4.05,2.89,4.16Z" transform="translate(-645 -202)"/><path class="cls-4" d="M1155.26,491.12V478.69C1159.2,483.08,1158.06,487.08,1155.26,491.12Z" transform="translate(-645 -202)"/><path class="cls-4" d="M1140.51,486.85c-2.13-2.24-1.27-4.56-2.62-6.42C1141.28,480.91,1141.28,480.91,1140.51,486.85Z" transform="translate(-645 -202)"/><path class="cls-2" d="M1034.2,298.91V274.46c8.54-1.07,14.45,3.81,14.81,12.11S1044.33,299.08,1034.2,298.91Z" transform="translate(-645 -202)"/><path class="cls-1" d="M910.3,356.37c.56-.61,1.07-1.7,1.67-1.75,5.59-.46,6.1-7.32,11-8.63.33-.09.43-1.05.62-1.58-1-.87-1.5.27-2.34.35,0-.47-.23-1,0-1.38,3.8-7,10.28-9.53,17.68-10.4,1.85-.22,3.83.51,4.83-2.08.55-1.42,2.35-1,3.6-.76,1,.21,2.1,1.26,1.61,2.14-2.43,4.37,1.71,6.71,2.87,9.94a45.77,45.77,0,0,0,2.35,4.7c-2.49.76-2.21-1.92-3.37-2.82-1-.74-1.17-2.2-3-2.14-4.31.13-3.83-2.53-2.32-5.66-6.1-.87-10.16,1.85-13,6a121.27,121.27,0,0,0-8.32,14.53c-3.69,7.39-9,12.5-17.32,14.13-3.22.63-6.44,1.28-9.65,2-7,1.57-11.18,6.85-14.73,12.43-1.3,2,1,4.61,1.55,6.95.76,3.11,3.55,4.73,5.75,6.64,2.62,2.28,3.91,4.7,2.65,8.11a2.75,2.75,0,0,0,.61,3.41c2-2.35,5.78-3.88,4.31-7.43a13.66,13.66,0,0,0-4.68-6.46c-3-2-5.8-4.56-5.56-8.8a12.28,12.28,0,0,1,.47-1.77c1.29,2.23,2.77-.64,4.1.63,0,5.77,8.54,5.66,7.6,12,1.53-.79,2.25-1.36,2.17-2.84-.18-3.09-1.89-5.1-4-7.08a4.74,4.74,0,0,1-.5-6.74c2.13-2.46,3.72,0,5.15,1.55.23.24.49.45.74.68,4.58,4.25,9.93,3.24,14.94,1.52,4.24-1.45,5.38-5.44,5.26-9.69-.05-1.73,0-3.4,2.54-3.87.62,3.95,3.93,5.88,6.1,8.4,2.17.12.69-1.74,2.06-2.69,2.12-1.47,5.74-4.69,4.74-6.69-1.45-2.87.35-4.6.27-6.81a5.39,5.39,0,0,1,.33-.5c2.71-5.9-.07-11.78-.2-17.87,2.79,4.38,8.25,2.89,11.37,6.15,1.77-1.73,4-2.69,3.93-5.35,1.14-.11,1.12,4.46,3.16.79,3.37-5.87,7.51-11.38,8.24-19,3.82,5.49,9.52,4,14.28,5.29,5.18,1.41,9.39,3.87,11,9.35.13.47-.64,1.2-1.06,1.93,3.75,5,10.31,8.09,14.7,13.52-2.75,2-3.7-.59-5.29-.37-1.56,1.34-1.45,3.27-2.15,5.09a32.21,32.21,0,0,0,12.62,5.51c8.62,1.58,16.62,4.09,21,12.86,2.17,4.31,6.37,3.78,10,2.18,4.2-1.84,6.55-.48,8.13,3.42.43,1.07.83,2.41,1.68,3,4.21,2.88,3.89,5.24.06,8.41-2.23,1.84-3.48,4.79,0,7.3,1.45,1,3.25,2.38,1.89,4.49-1.58,2.45-3.16.21-4.65-.4a14.73,14.73,0,0,1-9.2-10.17c-1-3.21-2.06-7.79-7-8.53-2.5,3.58-4.59,7.68-9.33,9,0,0-.19-.16-.22-.27a2.66,2.66,0,0,1,0-.49c4.31-3.78,6.83-8.79,9.42-14.15-1.32-1.24-3.4-2.44-4.37-4.25-4.17-7.79-11.67-9.06-19.22-10.4-3.31-.59-6.51-1.21-9.54-3.07-6.2-3.8-9.09-9.89-12.39-15.88-3.46-6.28-6.09-13.39-13.86-16.13-3.18-1.12-3.08-1.4-5.61,1.76l2.28.69a12.48,12.48,0,0,1-1.88,3.18c-1.38,1.28-2.61.09-3.39-1.08L959,348.27c1.1,1.6,2.84,2.48,3.43,4.56,2.56-4.7,8.89-2.88,11.55-7.5-1.42,6.1-2.61,12-1.8,18.08.81.46,1.74-1.12,2.6,0-.33.78-1.36,1.56-.15,2.37a7.48,7.48,0,0,0,4.42-.52c-.61,3.55-4.43,2.8-6,5.45,2.16,2.41,4,6.36,6.83,7.17,4.61,1.33,5.3-4.92,8.59-7.37a11.37,11.37,0,0,1,.48,1.94c0,5.38.62,10.64,6.29,13.13,6,2.62,11.42,1.74,15.9-3.37a3.38,3.38,0,0,1,4.59-.83c1,4.19-.11,7.33-3.38,9.8-1.4,1.07-2.82,2.82-1.94,4.5,2.59,4.88,3.38,11,9.21,13.76,1.73-3-2.81-7.52,2.38-9.65a20.18,20.18,0,0,0,2.23,10.8c1.32,2.43,1.22,4.72-1.53,6.2-2.56,1.38-3.51,4.93-6.93,5.15.23-.95.47-1.89.78-3.16-5,3.58-5.75,5.46-2.94,7.05.47-1.48.32-3.32,2.23-4,.69,1.47,0,2.87-.19,4.28-1.53,1.12-3.25.64-4.86.76a2.9,2.9,0,0,1-3.2-1.76c-.83-1.69.08-2.44,1.26-3.21.13-.09.33-.11.43-.22,7.18-7.69,7.32-7.79,1.36-16.32a21.8,21.8,0,0,1-3.9-12.18c-8.64.87-15.69-3.23-23-7-4.3-2.24-8.5,0-12.28,2.85.66,6.51,11.37,7.15,9.23,15.47-3.54.37-6.17-2.3-7.37-4.22-3.53-5.66-9.29-9.31-12.55-15.06-.88-1.56.22-11.42,1.26-12.83,2.2-3,5.09.66,7.44-1,.79-1.13.52-2.49.52-3.8,0-5.44,0-10.88,0-16.51-5.35-.58-7.26,7.65-12.85,4-.17-.63-.33-1.25-.51-1.95-3.9,4.43-4.3,4.33-8.94.2-1.36-1.22-3.4-1.66-5.88-2.8,1.13,7.7-1.18,14.93,1.54,22,7-1.63,6.65-1,7.93,6.39.86,4.93-.16,8.39-3.21,11.29-5.28,5-8.63,12.28-16.4,15.19-2-4.47,1-6.68,3.34-8.67s5.15-3.85,5.91-7.23c-6.39-4.63-10.28-4.76-16.37-.63a26.67,26.67,0,0,1-18.36,4.37c-.14,7.87-4.88,13.61-10.27,19.38,2,4.76,6.55,7.58,9.65,11.55-1.47,3.66-4.37,4.32-8.13,3.57a18.86,18.86,0,0,0-7.3-9.73c-2.85-1.9-3.87-4-2.23-7.25,2.4-4.75,3.87-9.39-2.32-12.75-2.2-1.2-3-3.74-4.1-5.9-5.62,0-6.14,5-7.33,8.29-2.74,7.52-8.68,12.18-15.28,10.6-.17-1.3.62-2.1,1.43-3,3.9-4.2,4-6.47.09-10.78-.61-.67-1.46-.85-1.5-2.09-.16-4.3,8.19-11.41,12.31-10.58,4.8,1,9.32,1.19,12-4.38,3.34-6.82,10-8.73,16.72-10.28,3.87-.89,7.63-2.35,11.4-3.43,4.72-1.37,3.83-7.26,9.77-7.82-5.4-1.6-5.83,2.1-7.52,4.21-1.47-2.67-.63-4.66,1.07-6.48-1.58-1.1-2.54.09-3.65.65Zm56.13,28.29c1.83-1.64,4.64-1.85,5.49-5.07-2.2-.47-3.63-2.61-6.15-2.33C964.17,379.82,965.58,382.05,966.43,384.66ZM940.1,380.1c1.46,2.74,4,3.06,5.54,4.75.27-2.14,3.94-3.39,1.32-5.92C944.15,376.22,942.66,380.49,940.1,380.1Z" transform="translate(-645 -202)"/><path class="cls-1" d="M957,468.05c-4.77-2.12-10-.51-14.91-2-9.52-2.87-18.7-5.91-24.57-14.93-6.17-9.47-.4-19.48,6.36-24.14,10-6.86,21.15-9.41,33.1-9.17,10.74,0,20.95,2.22,30,8.18,10.89,7.15,13.51,19.18,6.29,27.26-6.42,7.2-14.52,11-23.85,12.93C965.29,467.08,960.9,465.89,957,468.05Zm-1.49-26.51c2.36-6.24,3.24.18,4.21.45,2.43-.77-.3-4.25,3-4,2.43.21.49,2.68,1.66,3.39,1.61-.62-.64-3.17,1.81-3.39,3.19-.29.82,3.06,2.55,3.87h24.66c-.25-7.31-5.36-10.63-10.81-13.93-10-6.06-21-6.42-32.17-5.9a46.47,46.47,0,0,0-22.12,6.33c-4.87,2.94-9.3,6.62-9.3,13.6h25.61c.64,0,1.79,0,1.87-.29,1.92-6.76,3.38.05,4.59.37,1.82-1.13-.47-3.93,2.37-4C956.12,437.91,954.41,440.35,955.51,441.54ZM918.91,445c1.81,6.23,5.71,9.56,10.66,12.14a54.83,54.83,0,0,0,31.26,6c7.38-.67,14.52-1.61,21-5.23,5.06-2.83,9.9-6.16,11.45-12.9-8,0-15.54,0-23,0a2.09,2.09,0,0,0-2.29,1.16c-1.52,2.67-1.74,2.54-3.38-.69-1,.6-.06,2.6-2.16,2.6-2.39,0-.56-2.84-2.51-3-1.64.17,0,3.51-2.78,3-1.72-.33-.59-2-1.68-2.48-2.16,5.92-3.17,0-4.45-.68-1.4,1.15-1.69,6.51-4.08.95-.54-1.25-1.68-.8-2.57-.81C936,445,927.7,445,918.91,445Z" transform="translate(-645 -202)"/><path class="cls-1" d="M911.09,357.1c-.53,1.22-1.07,2.44-1.63,3.7-3.08-2.26-.33-3.17.84-4.43Z" transform="translate(-645 -202)"/><path class="cls-1" d="M961.21,566.33c3.06-1.06,5.65.23,8.56.92v14.32c-3,1.6-5.65-1-8.56-.69Z" transform="translate(-645 -202)"/><path class="cls-1" d="M953.81,565.1v15.69c-3.13.24-6.32.25-9.62,1.39V566.36Z" transform="translate(-645 -202)"/><path class="cls-4" d="M965.84,714c.8,6.08-4.2,13.11,2.88,18.33-3.32,1.36-6.79.66-11.86.35,6.43-2.34,5-6.68,5.1-10.51s-.2-7.68.07-11.49c.22-3-.4-5-4.48-5.19,7-3,10-1.73,12.41,4.35,1.73,4.39,3.68,8.69,5.94,14,1.78-4.18,3.16-7.42,4.52-10.66s2.76-6.63,4.15-9.95a24.42,24.42,0,0,1,8.1.14c-3.86,4.66-3.84,24.74.26,28.2a38,38,0,0,1-12.19.11c4.77-3.33,5.36-6.85,3.67-20.2l-9.61,22.14Z" transform="translate(-645 -202)"/><path class="cls-4" d="M843.54,721.06c-2.07-1.26-4.82-.5-6.47-2.07,5.77-6,1.49-13.26,2.67-19.81-3.55,5.72-5.76,12.11-10,18.55-3.15-7.65-6-14.63-8.9-21.61-.53,6.16-1.48,12.16.42,18.18-4.9-.79-4.58-.78-4.4-5,.28-6.81,0-13.64.15-20.46.07-2.67-2.85-2.52-3.51-4.38,6.36-.62,8.45.69,10.59,6,2.31,5.71,3.79,11.79,7.28,17.69l8.46-17,8.57,2.44c-3.3,1.69-3.53,4.1-3.43,6.83.17,5.15.08,10.31,0,15.47C845,717.45,845.54,719.19,843.54,721.06Z" transform="translate(-645 -202)"/><path class="cls-4" d="M1052,698.64c1,8-1.78,16.6,1.88,25.15a23.79,23.79,0,0,1-11,1.86c3.38-2.93,4.33-13.53,2.63-25.18-4.16-1.76-5.36,2.65-8.08,4.26a13.87,13.87,0,0,1-.21-6.25l23.3-4.52a15.05,15.05,0,0,1-.76,9.92C1058.67,698.84,1056.68,696.79,1052,698.64Z" transform="translate(-645 -202)"/><path class="cls-4" d="M1015.93,699.58c6,9.08,7.6,19.69,14.33,28-2.59,1.23-6.14-.06-9.72,1,2.1-3,1.06-5.47-1.09-8.7-2.68,3.33-8.73-2.18-10.45,4.8-.8,3.24-1,3.19,2.5,5.92l-9.25.66C1008.57,721.6,1010.77,710.34,1015.93,699.58Zm-.82,8.63c-.9,4-3,6.15-2.81,9.27a10.55,10.55,0,0,0,5.9.22C1018.44,714.55,1016.21,712.35,1015.11,708.21Z" transform="translate(-645 -202)"/><path class="cls-4" d="M918,731.67c7.21-8.66,8.48-19.5,14.25-29.06,5.78,9.39,8.15,19.92,13.18,29.47-3.45,2.23-6-1-9.17-.05,2.4-3.72,2.34-7-1.38-8.69-4.93-2.3-8.91.13-10.67,5.85.38,1.25,2.44.24,2.51,2.5A25,25,0,0,1,918,731.67Zm13.63-20.29a17.36,17.36,0,0,0-3.34,8.33,13.54,13.54,0,0,0,6.57-.22Z" transform="translate(-645 -202)"/><path class="cls-4" d="M1080.53,717.74c6.13-3.11,3.61-5.77,1.74-8.44-10.73,1.33-12.07,5-10.54,11-3.18,1.82-3.18,1.82-6.8,1.53,6.67-9.89,8.1-22.26,14.06-33,5.61,8.61,6.8,18.69,13.59,26.26C1089.28,716.05,1086.06,717.73,1080.53,717.74Zm-3.06-19.39c-1,3.15-2,6.16-3,9.24,2.71.92,4.5-.52,7.11-1.63C1079.57,703.48,1080.09,700.29,1077.47,698.35Z" transform="translate(-645 -202)"/><path class="cls-4" d="M869.73,696.38c5.52,9.52,7.79,19.7,12.44,28.88-3.07,3.55-6,1-9.06.35,2.29-2.74,2.29-2.74.38-8.3-3.31.27-6.46-1.91-9.91-1.09a22.92,22.92,0,0,0-1.8,7.53h-7.35c4.84-3.49,6-8.29,8.09-12.68C864.66,706.5,866,701.5,869.73,696.38Zm-5,17a12.16,12.16,0,0,0,7.24.2c-1.1-3.09-2.15-6.09-3.45-9.76C867.14,707.28,866,710.1,864.74,713.34Z" transform="translate(-645 -202)"/><path class="cls-4" d="M913.79,710.15c-2-3.66-3.84-6.5-8.52-5.1v24.69h-8.92c4.46-2,3.66-5.8,3.66-9.28,0-5.28,0-10.57,0-15.58-4.54-2.38-7-.12-9.63,4.56v-9.81c7.49,3.27,15.42,2,23.4,2.51Z" transform="translate(-645 -202)"/><path class="cls-1" d="M982.29,747.65c-.26,2.79-1.35,5.26,3.36,6-4.22.31-7.19,2.48-10.54.89,3.8-3.58,4.13-12.9.1-15.53,4.1,0,7.76.17,11.4-.06,2.48-.16,4.62.6,5.25,2.77.8,2.76-1.78,3.83-4.21,4.9,2.1,2.79,3.87,5.44,7.47,6.15C989,756.18,986.65,749.85,982.29,747.65Zm.12-7.72a10.16,10.16,0,0,0,.16,6.28c1.66-1.64,4.79-.4,5.41-3.58A7.83,7.83,0,0,0,982.41,739.93Z" transform="translate(-645 -202)"/><path class="cls-1" d="M928.17,754c-8.51,0-12.16-4.56-10.28-12.16.8-3.23,3.43-2.74,5.24-3.37,6.62-2.31,13.84,2,13.88,7.94C937.05,752.14,934.88,754,928.17,754ZM933,746.7c0-4.41-2.38-6.73-6.23-6.71-4.43,0-4.64,2.83-4.83,6.27-.24,4.24,2.22,6.5,5.55,6.49S933.67,750.64,933,746.7Z" transform="translate(-645 -202)"/><path class="cls-1" d="M865.52,732.25c3.84-1.19,7.49.45,11.09,1.14,2.44.47,5.21,2.31,4.8,5.61s-3.19,3.14-5.71,3c-1,0-2,0-3.25,0-.6,2.39-1.47,4.66,1.82,6.37-3-1.25-6.38.81-8.75-1.88C869.11,744.74,869.11,735.61,865.52,732.25Zm11.23,7.41c1.2-4.16-1.47-4.82-4.6-5.12,0,1.74-.53,3.49.24,5.21A7.44,7.44,0,0,0,876.75,739.66Z" transform="translate(-645 -202)"/><path class="cls-1" d="M1034,735.86c-2.77.88-4.63,1.69-5.81,4.49v-5.08c5.36-1.53,10.83-1.82,16.42-2.41a7.71,7.71,0,0,1,.09,5c-1.71-1.19-2.33-4.23-4.91-2.72v13.7a10.45,10.45,0,0,1-7.36.88C1035.34,745.5,1033.52,740.82,1034,735.86Z" transform="translate(-645 -202)"/><path class="cls-1" d="M826.38,723.75c-1.43-1.19-3.47-.4-5-1.75,1,4.08,4.54,5.8,6.73,8.64,1.27,1.65,4.33,2.63,2.14,5.61s-4.57,1.85-6.93.45c-2.87-1.71-7.7-1.89-6-7.62,3,2.33,4.14,7.1,9.26,6.85,1-4.19-3.15-5.17-4.91-7.51-.59-.78-2.13-.81-2.6-2-.69-1.78-2.26-3.69-.46-5.44s3.84-1.56,5.79,0c.86.69,1.75,1.32,2.63,2Z" transform="translate(-645 -202)"/><path class="cls-1" d="M1090.92,736.91c.31-1.06.63-2.12,1-3.49-2.13-.48-4.26-1-6.41-1.4-1.87-.31-3.55-1.64-3.28-3s.49-3.14,2.29-4.41c2.79-2,6.66-.5,8.91-3.39a5.38,5.38,0,0,1,1,6c-2.88-2.5-5.67-3.62-8.55-.54.6,2.1,1.94,2.39,3.55,2.31,2.54-.13,5.33.12,5.82,3,.43,2.52-1.17,4.66-3.72,5.74Z" transform="translate(-645 -202)"/><path class="cls-1" d="M1091.61,737.75c-2.37,2.58-6,1.64-9.06,3.4a11,11,0,0,1-.56-6.62c2.68,3.61,5.63,4.09,8.93,2.38Z" transform="translate(-645 -202)"/><path class="cls-1" d="M827.08,722.91c5.15-.75,2.11,3,3,5-2.51-.71-2.19-3.2-3.75-4.11Z" transform="translate(-645 -202)"/><path class="cls-2" d="M1148.51,455.29c-3.56-3.86-2.39-8.14-1.44-12.41C1148.38,446.93,1147.31,451.25,1148.51,455.29Z" transform="translate(-645 -202)"/><path class="cls-1" d="M1154.53,465.71c.86,1.76-.34,2.76-1.17,4C1152.44,467.92,1153.58,466.92,1154.53,465.71Z" transform="translate(-645 -202)"/><path class="cls-1" d="M1148.08,500.92c-2.81-.11-2.72-2.22-2.89-4.16C1147.9,496.93,1147.39,499.34,1148.08,500.92Z" transform="translate(-645 -202)"/><path class="cls-1" d="M1145.28,496.9c-1.54-.53-1.86-1.56-1.21-3A2.66,2.66,0,0,1,1145.28,496.9Z" transform="translate(-645 -202)"/><path class="cls-2" d="M1022,399.84c-5.19,2.13-.65,6.66-2.38,9.65-5.83-2.72-6.62-8.88-9.21-13.76-.88-1.68.54-3.43,1.94-4.5,3.27-2.47,4.37-5.61,3.38-9.8a3.38,3.38,0,0,0-4.59.83c-4.48,5.11-9.95,6-15.9,3.37-5.67-2.49-6.27-7.75-6.29-13.13a11.37,11.37,0,0,0-.48-1.94c-3.29,2.45-4,8.7-8.59,7.37-2.79-.81-4.67-4.76-6.83-7.17,1.54-2.65,5.36-1.9,6-5.45a7.48,7.48,0,0,1-4.42.52c-1.21-.81-.18-1.59.15-2.37-.86-1.17-1.79.41-2.6,0-.81-6.1.38-12,1.8-18.08-2.66,4.62-9,2.8-11.55,7.5-.59-2.08-2.33-3-3.43-4.56l4.46-7.77c.78,1.17,2,2.36,3.39,1.08a12.48,12.48,0,0,0,1.88-3.18l-2.28-.69c2.53-3.16,2.43-2.88,5.61-1.76,7.77,2.74,10.4,9.85,13.86,16.13,3.3,6,6.19,12.08,12.39,15.88,3,1.86,6.23,2.48,9.54,3.07,7.55,1.34,15,2.61,19.22,10.4,1,1.81,3,3,4.37,4.25-2.59,5.36-5.11,10.37-9.42,14.15Zm-7.59,2.47c.45-2.71,3.08-2.08,3.54-4,.7-2.88,4.21-2.95,5.53-5.3,1.17-2.08,2.15-4.12.81-7.39-.58,2.22.29,4.33-2.14,5-.1-1.77-.21-3.5-.4-6.72-1,3.64-.86,6.6-3.12,7.7C1013,394.38,1012.47,395.22,1014.44,402.31Zm-33.41-32c.15,1.8-.65,3.45,1,5l4.84-6.54Z" transform="translate(-645 -202)"/><path class="cls-4" d="M938.69,364.47c.08,2.21-1.72,3.94-.27,6.81,1,2-2.62,5.22-4.74,6.69-1.37.95.11,2.81-2.06,2.69-2.17-2.52-5.48-4.45-6.1-8.4-2.58.47-2.59,2.14-2.54,3.87.12,4.25-1,8.24-5.26,9.69-5,1.72-10.36,2.73-14.94-1.52-.25-.23-.51-.44-.74-.68-1.43-1.58-3-4-5.15-1.55a4.74,4.74,0,0,0,.5,6.74c2.12,2,3.83,4,4,7.08.08,1.48-.64,2.05-2.17,2.84.94-6.37-7.56-6.26-7.6-12-1.33-1.27-2.81,1.6-4.1-.63a12.28,12.28,0,0,0-.47,1.77c-.24,4.24,2.54,6.78,5.56,8.8a13.66,13.66,0,0,1,4.68,6.46c1.47,3.55-2.28,5.08-4.31,7.43a2.75,2.75,0,0,1-.61-3.41c1.26-3.41,0-5.83-2.65-8.11-2.2-1.91-5-3.53-5.75-6.64-.58-2.34-2.85-4.91-1.55-6.95,3.55-5.58,7.68-10.86,14.73-12.43,3.21-.71,6.43-1.36,9.65-2,8.29-1.63,13.63-6.74,17.32-14.13a121.27,121.27,0,0,1,8.32-14.53c2.88-4.19,6.94-6.91,13-6-1.51,3.13-2,5.79,2.32,5.66,1.78-.06,2,1.4,3,2.14,1.16.9.88,3.58,3.37,2.82v0c0,2.66-2.16,3.62-3.93,5.35-3.12-3.26-8.58-1.77-11.37-6.15.13,6.09,2.91,12,.2,17.87-.24-.66-.86-1.13-1.27-.53S938.2,364.26,938.69,364.47Zm-8.6,11.39c.74-1.6,2.74-2.71,1.31-4.72s-3-1.23-4.71-.75C926.82,372.78,930.93,372.68,930.09,375.86Z" transform="translate(-645 -202)"/><path class="cls-4" d="M966.43,384.66c-.85-2.61-2.26-4.84-.66-7.4,2.52-.28,4,1.86,6.15,2.33C971.07,382.81,968.26,383,966.43,384.66Z" transform="translate(-645 -202)"/><path class="cls-2" d="M940.1,380.1c2.56.39,4-3.88,6.86-1.17,2.62,2.53-1.05,3.78-1.32,5.92C944.06,383.16,941.56,382.84,940.1,380.1Z" transform="translate(-645 -202)"/><path class="cls-2" d="M1015.87,421.92c-1.91.64-1.76,2.48-2.23,4-2.81-1.59-2.07-3.47,2.94-7.05-.31,1.27-.55,2.21-.78,3.16Z" transform="translate(-645 -202)"/><path class="cls-2" d="M955.51,441.54c-1.1-1.19.61-3.63-2.06-3.52-2.84.11-.55,2.91-2.37,4-1.21-.32-2.67-7.13-4.59-.37-.08.25-1.23.28-1.87.29H919c0-7,4.43-10.66,9.3-13.6a46.47,46.47,0,0,1,22.12-6.33c11.14-.52,22.15-.16,32.17,5.9,5.45,3.3,10.56,6.62,10.81,13.93H968.75c-1.73-.81.64-4.16-2.55-3.87-2.45.22-.2,2.77-1.81,3.39-1.17-.71.77-3.18-1.66-3.39-3.31-.28-.58,3.2-3,4C958.75,441.72,957.87,435.3,955.51,441.54Z" transform="translate(-645 -202)"/><path class="cls-2" d="M918.91,445c8.79,0,17.11,0,25.43,0,.89,0,2-.44,2.57.81,2.39,5.56,2.68.2,4.08-.95,1.28.66,2.29,6.6,4.45.68,1.09.44,0,2.15,1.68,2.48,2.75.52,1.14-2.82,2.78-3,2,.2.12,3,2.51,3,2.1,0,1.16-2,2.16-2.6,1.64,3.23,1.86,3.36,3.38.69a2.09,2.09,0,0,1,2.29-1.16c7.48,0,15,0,23,0-1.55,6.74-6.39,10.07-11.45,12.9-6.46,3.62-13.6,4.56-21,5.23a54.83,54.83,0,0,1-31.26-6C924.62,454.57,920.72,451.24,918.91,445Z" transform="translate(-645 -202)"/><path class="cls-2" d="M1015.11,708.21c1.1,4.14,3.33,6.34,3.09,9.49a10.55,10.55,0,0,1-5.9-.22C1012.08,714.36,1014.21,712.18,1015.11,708.21Z" transform="translate(-645 -202)"/><path class="cls-2" d="M931.67,711.38l3.23,8.11a13.54,13.54,0,0,1-6.57.22A17.36,17.36,0,0,1,931.67,711.38Z" transform="translate(-645 -202)"/><path class="cls-2" d="M1077.47,698.35c2.62,1.94,2.1,5.13,4.09,7.61-2.61,1.11-4.4,2.55-7.11,1.63C1075.46,704.51,1076.44,701.5,1077.47,698.35Z" transform="translate(-645 -202)"/><path class="cls-2" d="M864.74,713.34c1.28-3.24,2.4-6.06,3.79-9.56,1.3,3.67,2.35,6.67,3.45,9.76A12.16,12.16,0,0,1,864.74,713.34Z" transform="translate(-645 -202)"/><path class="cls-2" d="M982.41,739.93a7.83,7.83,0,0,1,5.57,2.7c-.62,3.18-3.75,1.94-5.41,3.58A10.16,10.16,0,0,1,982.41,739.93Z" transform="translate(-645 -202)"/><path class="cls-2" d="M933,746.7c.68,3.94-2.24,6-5.51,6s-5.79-2.25-5.55-6.49c.19-3.44.4-6.26,4.83-6.27C930.61,740,933,742.29,933,746.7Z" transform="translate(-645 -202)"/><path class="cls-2" d="M876.75,739.66a7.44,7.44,0,0,1-4.36.09c-.77-1.72-.27-3.47-.24-5.21C875.28,734.84,878,735.5,876.75,739.66Z" transform="translate(-645 -202)"/><path class="cls-1" d="M1014.44,402.31c-2-7.09-1.42-7.93,4.22-10.68,2.26-1.1,2.1-4.06,3.12-7.7.19,3.22.3,4.95.4,6.72,2.43-.67,1.56-2.78,2.14-5,1.34,3.27.36,5.31-.81,7.39-1.32,2.35-4.83,2.42-5.53,5.3C1017.52,400.23,1014.89,399.6,1014.44,402.31Z" transform="translate(-645 -202)"/><path class="cls-1" d="M981,370.31l5.84-1.54L982,375.31C980.38,373.76,981.18,372.11,981,370.31Z" transform="translate(-645 -202)"/><path class="cls-1" d="M930.09,375.86c.84-3.18-3.27-3.08-3.4-5.47,1.72-.48,3.36-1.14,4.71.75S930.83,374.26,930.09,375.86Z" transform="translate(-645 -202)"/><path class="cls-1" d="M938.69,364.47c-.49-.21-1.39-.38-.94-1s1-.13,1.27.53A5.39,5.39,0,0,0,938.69,364.47Z" transform="translate(-645 -202)"/></svg>